<?xml version="1.0" encoding="UTF-8" standalone="no"?>
<!-- Created with Inkscape (http://www.inkscape.org/) -->

<svg
   width="312.55399"
   height="188.86926"
   viewBox="0 0 82.696571 49.971661"
   version="1.1"
   id="svg1073"
   sodipodi:docname="fig-03.svg"
   inkscape:version="1.1.2 (08b2f3d93c, 2022-04-05)"
   xmlns:inkscape="http://www.inkscape.org/namespaces/inkscape"
   xmlns:sodipodi="http://sodipodi.sourceforge.net/DTD/sodipodi-0.dtd"
   xmlns="http://www.w3.org/2000/svg"
   xmlns:svg="http://www.w3.org/2000/svg">
  <sodipodi:namedview
     id="namedview5155"
     pagecolor="#ffffff"
     bordercolor="#666666"
     borderopacity="1.0"
     inkscape:pageshadow="2"
     inkscape:pageopacity="0.0"
     inkscape:pagecheckerboard="0"
     inkscape:document-units="px"
     showgrid="false"
     units="px"
     inkscape:zoom="3.0682701"
     inkscape:cx="156.27699"
     inkscape:cy="94.352841"
     inkscape:window-width="1920"
     inkscape:window-height="1016"
     inkscape:window-x="0"
     inkscape:window-y="27"
     inkscape:window-maximized="1"
     inkscape:current-layer="svg1073" />
  <defs
     id="defs1070" />
  <path
     style="fill:#ffffff;fill-opacity:1;stroke:none;stroke-width:0.264583px;stroke-linecap:butt;stroke-linejoin:miter;stroke-opacity:1"
     d="m 7.331824,24.237486 c 4.852769,5.03781 9.073149,10.47509 11.501186,17.04458 l 49.903311,-14.22214 -15.02845,-15.24569 z"
     id="path31812" />
  <path
     style="fill:none;stroke:#000000;stroke-width:1;stroke-linecap:round;stroke-linejoin:round;stroke-miterlimit:4;stroke-dasharray:none;stroke-opacity:1"
     d="m 7.397947,24.267366 c 0,0 4.95618,4.50746 11.05548,16.37125 9.72616,-3.85259 31.217844,-13.11995 55.484784,-17.21797 -4.34498,-9.336814 -6.15375,-10.970971 -9.83151,-15.390458"
     id="path5930" />
  <path
     style="fill:#fcf9d3;fill-opacity:1;stroke:#000000;stroke-width:1;stroke-linecap:round;stroke-linejoin:round;stroke-miterlimit:4;stroke-dasharray:none;stroke-opacity:1"
     d="m 19.226297,41.760856 c -0.7985,-4.05993 -3.21499,-8.58404 -5.70379,-12.18096 18.94026,-6.04476 51.584314,-13.513667 56.823114,-15.327098 1.77416,3.0469 3.13816,5.277758 4.24323,10.190148 -9.26863,4.63432 -55.410344,16.92534 -58.029744,16.92534"
     id="path5932" />
  <g
     id="g5946"
     transform="translate(-233.56761,-40.526395)">
    <path
       style="fill:none;stroke:#000000;stroke-width:0.264583px;stroke-linecap:round;stroke-linejoin:round;stroke-opacity:1"
       d="m 274.94105,64.42934 c 2.43152,-0.685294 11.12922,-2.915764 11.12922,-2.915764"
       id="path5934" />
    <path
       style="fill:none;stroke:#000000;stroke-width:0.264583px;stroke-linecap:round;stroke-linejoin:round;stroke-opacity:1"
       d="m 281.49142,64.211218 c 0.4903,-0.120507 1.52971,0.4946 0.86397,0.864513 -0.94202,0.523426 -1.69143,-0.596459 -0.57221,-0.846929"
       id="path5942" />
  </g>
  <path
     style="fill:none;stroke:#000000;stroke-width:0.264583px;stroke-linecap:butt;stroke-linejoin:miter;stroke-opacity:1"
     d="m 43.149177,23.978406 c 6.222314,-0.85306 11.470174,-2.99123 11.470174,-2.99123"
     id="path13347" />
  <g
     id="g1903"
     transform="matrix(0.18239069,-0.05245461,0.05245461,0.18239069,44.144857,24.788443)"
     style="stroke-width:1.05383;stroke-miterlimit:4;stroke-dasharray:none">
    <path
       style="fill:none;stroke:#000000;stroke-width:1.05383;stroke-miterlimit:4;stroke-dasharray:none"
       d="M 17.23614,3.319992 C 15.62796,4.2232731 16.34192,6.2196522 18.66381,5.0001443 20.98571,3.7806363 21.528,0.87958569 17.23614,3.319992 Z"
       id="path1627" />
    <path
       style="fill:none;stroke:#000000;stroke-width:1.05383;stroke-linecap:round;stroke-linejoin:round;stroke-miterlimit:4;stroke-dasharray:none"
       d="m 21.86707,5.1803013 c 1.09065,3.6784878 1.65767,4.8082126 2.34336,5.8741097 0.6857,1.065897 4.39107,0.979223 6.21139,3.020609 2.33999,2.62417 5.61403,10.274551 8.33803,16.14228"
       id="path1629" />
    <path
       style="fill:none;stroke:#000000;stroke-width:1.05383;stroke-linecap:round;stroke-linejoin:round;stroke-miterlimit:4;stroke-dasharray:none"
       d="m 22.3034,31.255118 c -2.33552,-4.077904 -3.49797,-7.592363 -4.07832,-10.265193 -0.58036,-2.672822 2.16147,-5.946144 1.81339,-7.164816 -0.3481,-1.218663 -1.21057,-2.770848 -2.73297,-6.3479995 1.06329,1.6565834 4.09728,-0.447393 4.2736,-1.8297958"
       id="path1631" />
    <path
       style="fill:none;stroke:#000000;stroke-width:1.05383;stroke-linecap:round;stroke-linejoin:round;stroke-miterlimit:4;stroke-dasharray:none"
       d="m 12.89485,30.862775 c 0.87933,2.963215 5.43292,1.251143 6.30749,-0.903367 1.42598,2.048375 8.56149,2.017676 10.47804,-0.98294 1.62241,2.448292 3.48725,2.755726 4.6696,0.351741 0.9645,-1.961046 0.69829,0.05523 3.3379,0.535321 2.63961,0.480092 4.48181,-1.869428 6.28325,-0.400573 1.80142,1.468853 3.8959,1.377228 5.79492,0.648782"
       id="path1633" />
    <path
       style="fill:none;stroke:#000000;stroke-width:1.05383;stroke-linecap:round;stroke-linejoin:round;stroke-miterlimit:4;stroke-dasharray:none"
       d="m 34.355587,29.426457 c -1.18366,-1.999901 -5.23526,-10.950566 -6.60052,-12.423547 -1.14931,2.889209 -2.83,5.40534 -5.57097,7.318991 -2.740978,1.913652 -1.938323,-3.160509 1.56177,-5.606199 0.55617,1.267067 1.14108,2.337542 1.63099,2.902266"
       id="path1635" />
    <path
       style="fill:none;stroke:#000000;stroke-width:1.05383;stroke-linecap:round;stroke-linejoin:round;stroke-miterlimit:4;stroke-dasharray:none"
       d="m 20.698244,24.362953 c 1.184033,1.877542 2.191883,3.43435 4.910303,6.510513"
       id="path1637" />
    <path
       style="fill:none;stroke:#000000;stroke-width:1.05383;stroke-linecap:round;stroke-linejoin:round;stroke-miterlimit:4;stroke-dasharray:none"
       d="m 31.48019,8.883866 c 1.79404,0.9226519 2.82539,2.407552 3.15194,3.260828"
       id="path1641" />
    <path
       style="fill:none;stroke:#000000;stroke-width:1.05383;stroke-linecap:round;stroke-linejoin:round;stroke-miterlimit:4;stroke-dasharray:none"
       d="m 35.32999,5.1664453 c 2.04723,1.7036456 2.69691,3.6631891 3.00168,5.0939157"
       id="path1643" />
    <path
       style="fill:none;stroke:#000000;stroke-width:1.05383;stroke-linecap:round;stroke-linejoin:round;stroke-miterlimit:4;stroke-dasharray:none"
       d="m 12.10665,8.0949715 c -1.54001,-1.4264519 0.525,-5.8105847 3.17728,-6.9006311"
       id="path1645" />
    <path
       style="fill:none;stroke:#000000;stroke-width:1.05383;stroke-linecap:round;stroke-linejoin:round;stroke-miterlimit:4;stroke-dasharray:none"
       d="M 7.82737,4.416967 C 7.81237,3.0328459 8.79765,1.0698021 11.29841,0.34999999"
       id="path1647" />
    <path
       style="fill:none;stroke:#000000;stroke-width:1.05383;stroke-linecap:round;stroke-linejoin:round;stroke-miterlimit:4;stroke-dasharray:none"
       d="m 16.45383,4.8036021 c 0.53204,1.0618131 1.08185,2.2452987 1.70867,3.2200483"
       id="path1649" />
    <path
       style="fill:none;stroke:#000000;stroke-width:1.05383;stroke-linecap:round;stroke-linejoin:round;stroke-miterlimit:4;stroke-dasharray:none"
       d="m 20.56388,2.8485967 c 0.45499,1.1955474 0.46214,1.0951799 1.01522,2.798717"
       id="path1651" />
    <path
       style="fill:none;stroke:#000000;stroke-width:1.05383;stroke-linecap:round;stroke-linejoin:round;stroke-miterlimit:4;stroke-dasharray:none"
       d="M 0.39672999,24.374135 C 2.13009,26.441527 2.15551,25.764576 4.66406,24.557057 c 2.50854,-1.207519 0.87992,1.713759 3.14212,1.164594 2.26219,-0.549165 4.54562,-2.509897 5.38749,-1.769716"
       id="path1653" />
    <path
       style="fill:none;stroke:#000000;stroke-width:1.05383;stroke-linecap:round;stroke-linejoin:round;stroke-miterlimit:4;stroke-dasharray:none"
       d="m 39.00553,22.699225 c 2.41108,2.076085 6.56236,2.138104 7.41111,-1.043731 1.43965,2.179186 4.89136,2.306885 6.18071,-0.224527 0.94239,1.272947 2.74609,2.304607 4.36173,0.544157"
       id="path1655" />
    <path
       style="fill:none;stroke:#000000;stroke-width:1.05383;stroke-linecap:round;stroke-linejoin:round;stroke-miterlimit:4;stroke-dasharray:none"
       d="M 0.34999999,37.519377 C 1.14183,40.122718 6.98452,40.039186 7.62342,36.928496 c 1.23873,1.988548 4.32114,5.312154 7.34072,1.033394 1.26242,1.676298 3.01109,3.402069 7.05585,0.347175 1.87994,1.886384 4.15449,2.16456 7.65077,0.922663 1.37648,2.635128 4.28602,1.094186 7.57397,-2.526996"
       id="path1657" />
  </g>
  <path
     style="fill:#fcf9d3;fill-opacity:1;stroke:#000000;stroke-width:1;stroke-linecap:round;stroke-linejoin:round;stroke-miterlimit:4;stroke-dasharray:none;stroke-opacity:1"
     d="m 6.868777,23.738196 c 3.93657,0.66796 12.75146,6.20018 14.29893,8.37574 12.21898,-3.45819 44.431994,-10.95455 55.940974,-15.488009 C 72.427611,10.760665 68.322111,9.369269 64.635871,7.501021 60.616691,8.22589 7.422487,23.218136 6.606427,24.427396"
     id="path11000" />
  <path
     style="fill:none;stroke:#000000;stroke-width:0.264583px;stroke-linecap:butt;stroke-linejoin:miter;stroke-opacity:1"
     d="m 43.149177,23.978406 c 6.222314,-0.85306 11.470174,-2.99123 11.470174,-2.99123"
     id="path15156" />
  <path
     style="fill:none;stroke:#000000;stroke-width:0.5;stroke-linecap:round;stroke-linejoin:round;stroke-miterlimit:4;stroke-dasharray:none;stroke-opacity:1"
     d="m 29.846815,12.002007 c 6.66684,-2.457587 13.05933,2.875381 13.05933,6.656289"
     id="path13495" />
  <path
     style="fill:none;stroke:#000000;stroke-width:0.5;stroke-linecap:round;stroke-linejoin:round;stroke-miterlimit:4;stroke-dasharray:none;stroke-opacity:1"
     d="m 36.136445,17.078782 c 4.46778,0.474553 4.38706,0.319922 7.463536,1.45739 0.79072,-3.215495 0.54141,-4.87557 -0.014,-7.613744"
     id="path13969" />
</svg>
