<?xml version="1.0" encoding="UTF-8" standalone="no"?>
<!-- Created with Inkscape (http://www.inkscape.org/) -->

<svg
   width="82.696571mm"
   height="49.971661mm"
   viewBox="0 0 82.696571 49.971661"
   version="1.1"
   id="svg1073"
   xmlns="http://www.w3.org/2000/svg"
   xmlns:svg="http://www.w3.org/2000/svg">
  <defs
     id="defs1070" />
  <path
     style="fill:#ffffff;fill-opacity:1;stroke:none;stroke-width:0.264583px;stroke-linecap:butt;stroke-linejoin:miter;stroke-opacity:1"
     d="m 44.656062,32.000743 c 2.35685,3.02525 5.03821,1.12335 2.92555,-1.08046 -2.11267,-2.20381 -4.816609,-1.73447 -2.92555,1.08046 z"
     id="path35424" />
  <path
     style="fill:#dbd8b1;fill-opacity:1;stroke:none;stroke-width:0.264583px;stroke-linecap:butt;stroke-linejoin:miter;stroke-opacity:1"
     d="m 48.021702,31.699643 c 0,0 -16.734796,5.38514 -17.569824,4.79141 -0.835028,-0.59374 7.581058,-15.19051 16.633754,-15.33363 9.05269,-0.14312 19.09169,3.40985 19.27917,5.31308 0.18748,1.90323 -13.70108,5.87022 -18.36264,7.266 -0.0458,-0.6202 0.0195,-2.03686 0.0195,-2.03686 z"
     id="path23564" />
  <path
     style="fill:#fcf9d3;fill-opacity:1;stroke:none;stroke-width:0.264583px;stroke-linecap:butt;stroke-linejoin:miter;stroke-opacity:1"
     d="m 19.370061,21.262403 11.146141,15.44817 c 0.905005,-2.51368 23.53286,-9.49837 35.6401,-10.55399 -2.58884,-5.60106 -4.88587,-10.66691 -11.3841,-15.48691 -10.88361,1.02854 -22.374942,3.71528 -35.402141,10.59273 z"
     id="path21003" />
  <path
     style="fill:none;stroke:#000000;stroke-width:1;stroke-linecap:round;stroke-linejoin:round;stroke-miterlimit:4;stroke-dasharray:none;stroke-opacity:1"
     d="m 64.157302,26.234913 c -7.72091,1.22641 -30.825601,7.29483 -33.281638,9.84945 -2.456037,2.55463 17.058828,-4.11496 17.058828,-4.11496"
     id="path13584" />
  <path
     style="fill:none;stroke:#000000;stroke-width:1;stroke-linecap:round;stroke-linejoin:round;stroke-miterlimit:4;stroke-dasharray:none;stroke-opacity:1"
     d="m 47.133942,30.472833 c 1.35935,1.52566 1.44458,4.36095 -0.86474,2.66521"
     id="path14471" />
  <path
     style="fill:none;stroke:#000000;stroke-width:1;stroke-linecap:round;stroke-linejoin:round;stroke-miterlimit:4;stroke-dasharray:none;stroke-opacity:1"
     d="m 47.769802,33.768483 c 6.84655,-2.09629 13.71162,-4.77735 18.48799,-6.91815 -0.26166,-2.6783 -6.22106,-12.55534 -11.48559,-16.18066 -13.123749,0.20147 -30.642852,7.25667 -35.044215,10.38486 2.407219,5.36162 9.568167,14.43853 10.862268,15.46163"
     id="path14696" />
  <path
     style="fill:none;stroke:#000000;stroke-width:0.5;stroke-linecap:round;stroke-linejoin:round;stroke-miterlimit:4;stroke-dasharray:none;stroke-opacity:1"
     d="m 39.990916,14.840123 c 1.18087,0.77788 1.86218,1.63076 3.07896,3.62288 1.400826,-1.48898 2.195286,-2.88914 3.118616,-5.23332"
     id="path29094" />
  <path
     style="fill:none;stroke:#000000;stroke-width:0.5;stroke-linecap:round;stroke-linejoin:round;stroke-miterlimit:4;stroke-dasharray:none;stroke-opacity:1"
     d="M 42.880955,18.352913 C 43.040462,2.9272125 32.528763,0.77842254 28.270204,15.596643"
     id="path29281" />
  <path
     style="fill:none;stroke:#000000;stroke-width:0.5;stroke-linecap:round;stroke-linejoin:round;stroke-miterlimit:4;stroke-dasharray:none;stroke-opacity:1"
     d="m 32.826302,43.851183 c -4.304517,1.59589 -9.323719,-0.71367 -8.09099,-13.16964"
     id="path29593" />
  <g
     id="g6180"
     style="stroke:#000000;stroke-opacity:1">
    <path
       style="fill:none;stroke:#000000;stroke-width:0.7;stroke-linecap:round;stroke-linejoin:round;stroke-miterlimit:4;stroke-dasharray:none;stroke-opacity:1"
       d="m 34.007903,31.193755 -1.653161,-4.480679 3.308175,3.096663"
       id="path1555" />
    <path
       style="fill:none;stroke:#000000;stroke-width:0.7;stroke-linecap:round;stroke-linejoin:round;stroke-miterlimit:4;stroke-dasharray:none;stroke-opacity:1"
       d="m 33.390347,30.087178 1.611937,-0.946809"
       id="path1722" />
    <path
       style="fill:none;stroke:#000000;stroke-width:0.7;stroke-linecap:round;stroke-linejoin:round;stroke-miterlimit:4;stroke-dasharray:none;stroke-opacity:1"
       d="m 36.608056,28.751021 -2.514547,-3.533353 4.075537,3.038689 -2.479319,-3.716797"
       id="path1959" />
    <path
       style="fill:none;stroke:#000000;stroke-width:0.7;stroke-linecap:butt;stroke-linejoin:miter;stroke-miterlimit:4;stroke-dasharray:none;stroke-opacity:1"
       d="m 37.198656,24.627619 c -0.31369,-0.84376 0.626621,-2.026155 1.541098,-0.725856 0.914479,1.3003 0.940834,1.278562 1.428461,2.210527 0.487624,0.931965 -0.557894,1.796136 -1.231134,1.015958 -0.403931,-0.468091 -1.435905,-1.735959 -1.738425,-2.500629 z"
       id="path2553" />
    <path
       style="fill:none;stroke:#000000;stroke-width:0.7;stroke-linecap:round;stroke-linejoin:round;stroke-miterlimit:4;stroke-dasharray:none;stroke-opacity:1"
       d="m 41.591126,26.214973 -2.477918,-3.700699 3.75407,2.704154 -1.977975,-2.875756"
       id="path3272" />
    <path
       style="fill:none;stroke:#000000;stroke-width:0.7;stroke-linecap:round;stroke-linejoin:round;stroke-miterlimit:4;stroke-dasharray:none;stroke-opacity:1"
       d="m 41.234809,20.91409 0.286862,0.328505"
       id="path3439" />
    <path
       style="fill:none;stroke:#000000;stroke-width:0.7;stroke-linecap:round;stroke-linejoin:round;stroke-miterlimit:4;stroke-dasharray:none;stroke-opacity:1"
       d="m 42.247637,21.921736 1.100558,0.767666"
       id="path3606" />
    <path
       style="fill:none;stroke:#000000;stroke-width:0.7;stroke-linecap:round;stroke-linejoin:round;stroke-miterlimit:4;stroke-dasharray:none;stroke-opacity:1"
       d="m 42.516803,20.159202 0.831392,2.5302 1.14845,1.54565"
       id="path3806" />
    <path
       style="fill:none;stroke:#000000;stroke-width:0.7;stroke-linecap:round;stroke-linejoin:round;stroke-miterlimit:4;stroke-dasharray:none;stroke-opacity:1"
       d="m 45.941424,23.478815 -2.385989,-3.714583 2.589115,2.130193 -0.989653,-3.186043 2.432547,3.460443"
       id="path3973" />
    <path
       style="fill:none;stroke:#000000;stroke-width:0.7;stroke-linecap:round;stroke-linejoin:round;stroke-miterlimit:4;stroke-dasharray:none;stroke-opacity:1"
       d="M 48.787306,16.39761 50.24634,15.369374"
       id="path4173" />
    <path
       style="fill:none;stroke:#000000;stroke-width:0.7;stroke-linecap:round;stroke-linejoin:round;stroke-miterlimit:4;stroke-dasharray:none;stroke-opacity:1"
       d="m 49.576894,15.923856 2.377287,3.438922"
       id="path4373" />
    <path
       style="fill:none;stroke:#000000;stroke-width:0.7;stroke-linecap:round;stroke-linejoin:round;stroke-miterlimit:4;stroke-dasharray:none;stroke-opacity:1"
       d="m 48.66437,21.71569 -1.873933,-4.410923 3.649721,2.994546"
       id="path4573" />
    <path
       style="fill:none;stroke:#000000;stroke-width:0.7;stroke-linecap:round;stroke-linejoin:round;stroke-miterlimit:4;stroke-dasharray:none;stroke-opacity:1"
       d="m 48.243415,20.320095 1.195277,-0.905262"
       id="path4740" />
    <path
       style="fill:none;stroke:#000000;stroke-width:0.7;stroke-linecap:round;stroke-linejoin:round;stroke-miterlimit:4;stroke-dasharray:none;stroke-opacity:1"
       d="m 51.339546,15.557634 2.05442,2.953078"
       id="path4907" />
    <path
       style="fill:none;stroke:#000000;stroke-width:0.7;stroke-linecap:round;stroke-linejoin:round;stroke-miterlimit:4;stroke-dasharray:none;stroke-opacity:1"
       d="m 53.80928,16.491447 0.814115,1.155318"
       id="path5041" />
    <path
       style="fill:none;stroke:#000000;stroke-width:0.7;stroke-linecap:round;stroke-linejoin:round;stroke-miterlimit:4;stroke-dasharray:none;stroke-opacity:1"
       d="m 51.978125,14.067677 c 0,0 0.99501,1.12214 1.297642,1.504777 -0.374521,0.415662 -1.113235,0.881458 -1.113235,0.881458"
       id="path5369" />
  </g>
</svg>
