<?xml version="1.0" encoding="UTF-8" standalone="no"?>
<!-- Created with Inkscape (http://www.inkscape.org/) -->

<svg
   width="82.696571mm"
   height="49.971661mm"
   viewBox="0 0 82.696571 49.971661"
   version="1.1"
   id="svg1073"
   xmlns="http://www.w3.org/2000/svg"
   xmlns:svg="http://www.w3.org/2000/svg">
  <defs
     id="defs1070" />
  <path
     style="fill:#ffffff;fill-opacity:1;stroke:none;stroke-width:0.264583px;stroke-linecap:butt;stroke-linejoin:miter;stroke-opacity:1"
     d="m 40.159332,25.668665 c -3.210811,-8.45925 -13.429055,-16.8181004 -11.97627,-12.63425 1.452785,4.18385 9.191235,16.98805 11.027177,16.26134 0.213518,-1.58026 -0.648349,-2.60771 -0.648349,-2.60771 z"
     id="path32489" />
  <path
     style="fill:#ffffff;fill-opacity:1;stroke:none;stroke-width:0.264583px;stroke-linecap:butt;stroke-linejoin:miter;stroke-opacity:1"
     d="m 47.548069,24.386525 c -3.011464,-2.55147 -9.061173,-13.56493 -6.520662,-14.6075304 1.751825,-0.71893 11.905821,13.2556904 12.883002,15.7984104 -1.068793,1.33429 -3.705961,-2.01475 -3.705961,-2.01475 z"
     id="path33488" />
  <path
     style="fill:#dbd8b1;fill-opacity:1;stroke:none;stroke-width:0.264583px;stroke-linecap:butt;stroke-linejoin:miter;stroke-opacity:1"
     d="m 30.612814,40.281735 c 12.453806,-1.08948 24.254396,-5.60305 36.092908,-9.91783 l -16.431255,-6.53056 -2.260317,0.41222 -5.516118,-7.61186 -7.24981,2.20013 4.842782,6.66202 z"
     id="path70040" />
  <path
     style="fill:#fcf9d3;fill-opacity:1;stroke:none;stroke-width:0.264583px;stroke-linecap:butt;stroke-linejoin:miter;stroke-opacity:1"
     d="m 40.964702,10.068025 c 6.313504,5.12167 10.17961,10.50993 13.113735,15.99971 4.574871,-0.0165 8.470679,1.9974 12.323055,4.1412 -1.532209,-4.85925 -4.988313,-10.22299 -11.807424,-16.46859 -4.597593,-2.13751 -9.119944,-3.01331 -13.629366,-3.67232 z"
     id="path71112" />
  <path
     style="fill:#fcf9d3;fill-opacity:1;stroke:none;stroke-width:0.264583px;stroke-linecap:butt;stroke-linejoin:miter;stroke-opacity:1"
     d="m 28.307076,12.033225 c 1.889436,8.10126 5.7378,11.68313 10.492625,17.39996 -3.609563,3.38972 -6.562402,5.47564 -8.092265,10.98567 -4.495323,-5.45826 -9.550211,-10.31516 -12.057832,-17.90957 z"
     id="path47447" />
  <path
     style="fill:none;stroke:#000000;stroke-width:0.264583px;stroke-linecap:round;stroke-linejoin:round;stroke-opacity:1"
     d="m 50.987169,31.333605 1.419973,0.88892"
     id="path20223" />
  <path
     style="fill:none;stroke:#000000;stroke-width:0.264583px;stroke-linecap:round;stroke-linejoin:round;stroke-opacity:1"
     d="m 47.009036,32.277035 -0.784394,1.71267"
     id="path20225" />
  <path
     style="fill:none;stroke:#000000;stroke-width:0.265;stroke-linecap:round;stroke-linejoin:round;stroke-miterlimit:4;stroke-dasharray:none;stroke-opacity:1"
     d="m 46.516151,32.308125 c 0.44239,0.683 0.350411,0.32839 0.758281,1.43669 0.71692,-0.42051 1.28471,-0.68119 1.86735,-0.68814"
     id="path20227" />
  <path
     style="fill:none;stroke:#000000;stroke-width:0.265;stroke-linecap:round;stroke-linejoin:round;stroke-miterlimit:4;stroke-dasharray:none;stroke-opacity:1"
     d="m 41.386575,31.504025 c 6.22231,-0.85306 11.47017,-2.99123 11.47017,-2.99123"
     id="path20239" />
  <path
     style="fill:none;stroke:#000000;stroke-width:1;stroke-linecap:round;stroke-linejoin:round;stroke-miterlimit:4;stroke-dasharray:none;stroke-opacity:1"
     d="m 31.372386,38.404635 c 0.87326,-2.76223 6.730693,-8.55165 8.062749,-9.15497"
     id="path20596" />
  <path
     style="fill:none;stroke:#020000;stroke-width:1;stroke-linecap:round;stroke-linejoin:round;stroke-miterlimit:4;stroke-dasharray:none;stroke-opacity:1"
     d="m 39.926515,25.562955 c -2.788759,-6.31651 -9.534149,-13.87941 -11.51742,-13.49175 -1.642213,1.18895 8.164927,15.73073 10.344154,17.14707 2.17923,1.41634 -2.589891,-7.8169 -4.132079,-9.59209 -0.950161,0.40938 -1.437113,0.8926 -2.140835,1.75776"
     id="path20631" />
  <path
     style="fill:none;stroke:#000000;stroke-width:1;stroke-linecap:round;stroke-linejoin:round;stroke-miterlimit:4;stroke-dasharray:none;stroke-opacity:1"
     d="m 38.586899,26.750555 c 0.505176,-0.5074 0.981735,-0.88657 1.533619,-1.21392"
     id="path23083" />
  <path
     style="fill:none;stroke:#010000;stroke-width:1;stroke-linecap:round;stroke-linejoin:round;stroke-miterlimit:4;stroke-dasharray:none;stroke-opacity:1"
     d="m 64.368159,29.228735 c -3.490402,-2.66243 -9.566351,-3.39491 -10.755521,-3.32035"
     id="path23396" />
  <path
     style="fill:none;stroke:#010000;stroke-width:1;stroke-linecap:round;stroke-linejoin:round;stroke-miterlimit:4;stroke-dasharray:none;stroke-opacity:1"
     d="m 46.171748,19.297995 c 1.722676,2.54204 8.219589,7.9746 7.864803,6.30646 -0.354782,-1.66815 -10.900019,-15.36987 -12.562302,-15.6133204 -2.556429,-0.37441 1.922334,10.1964804 6.149263,14.2980604 0.818282,-0.30803 1.510972,-0.44901 2.440949,-0.50628"
     id="path23608" />
  <path
     style="fill:none;stroke:#000000;stroke-width:1;stroke-linecap:round;stroke-linejoin:round;stroke-miterlimit:4;stroke-dasharray:none;stroke-opacity:1"
     d="m 49.300957,19.319055 c -1.25951,-0.30275 -2.341835,-0.23445 -3.244282,-0.002"
     id="path25895" />
  <path
     style="fill:none;stroke:#000000;stroke-width:1;stroke-linecap:round;stroke-linejoin:round;stroke-miterlimit:4;stroke-dasharray:none;stroke-opacity:1"
     d="m 36.043602,18.516385 c 1.173472,-0.20745 5.283356,-1.48989 6.289265,-1.79643"
     id="path28802" />
  <path
     style="fill:none;stroke:#010000;stroke-width:1;stroke-linecap:round;stroke-linejoin:round;stroke-miterlimit:4;stroke-dasharray:none;stroke-opacity:1"
     d="m 34.11211,35.185245 c 4.26256,-1.01859 19.780256,-4.05506 28.130342,-7.13835"
     id="path28918" />
  <path
     style="fill:none;stroke:#000000;stroke-width:0.264583px;stroke-linecap:round;stroke-linejoin:round;stroke-opacity:1"
     d="m 50.386712,31.412445 0.493828,1.37945"
     id="path32434" />
  <path
     style="fill:none;stroke:#000000;stroke-width:0.264583px;stroke-linecap:round;stroke-linejoin:round;stroke-opacity:1"
     d="m 49.335947,31.674225 -0.131722,0.89762"
     id="path33025" />
  <g
     id="g77255"
     transform="translate(-19.572628,-145.46879)">
    <path
       style="fill:none;stroke:#000000;stroke-width:0.5;stroke-linecap:round;stroke-linejoin:round;stroke-miterlimit:4;stroke-dasharray:none;stroke-opacity:1"
       d="m 34.307028,179.57358 c 1.276202,-3.10026 6.791539,-10.26314 13.961642,-10.10323"
       id="path75724" />
    <path
       style="fill:none;stroke:#000000;stroke-width:0.5;stroke-linecap:round;stroke-linejoin:round;stroke-miterlimit:4;stroke-dasharray:none;stroke-opacity:1"
       d="m 43.515739,175.11163 c 2.990834,-3.35279 2.818146,-3.37738 5.536203,-5.21334 -2.151086,-2.51743 -3.645075,-3.28295 -6.193374,-4.42847"
       id="path76390" />
  </g>
  <path
     style="fill:none;stroke:#000000;stroke-width:0.5;stroke-linecap:round;stroke-linejoin:round;stroke-miterlimit:4;stroke-dasharray:none;stroke-opacity:1"
     d="m 55.054388,17.120665 c 4.523387,-2.64767 14.550744,-3.73138 16.234241,3.49374"
     id="path75726" />
  <path
     style="fill:none;stroke:#000000;stroke-width:0.5;stroke-linecap:round;stroke-linejoin:round;stroke-miterlimit:4;stroke-dasharray:none;stroke-opacity:1"
     d="m 57.739327,11.046385 c -1.711507,3.0102 -2.152199,3.96268 -3.226827,6.88593 3.050872,0.3389 4.863191,0.85054 7.389061,1.83601"
     id="path76472" />
  <path
     style="fill:none;stroke:#000000;stroke-width:0.264583px;stroke-linecap:round;stroke-linejoin:round;stroke-opacity:1"
     d="m 23.964309,18.703385 0.373388,0.6761"
     id="path78778" />
  <path
     style="fill:none;stroke:#000000;stroke-width:0.264583px;stroke-linecap:butt;stroke-linejoin:miter;stroke-opacity:1"
     d="m 24.784536,20.208685 0.55435,0.951"
     id="path78846" />
  <path
     style="fill:none;stroke:#000000;stroke-width:0.264583px;stroke-linecap:butt;stroke-linejoin:miter;stroke-opacity:1"
     d="m 25.907285,22.084555 0.418692,0.54899"
     id="path78848" />
  <path
     style="fill:none;stroke:#000000;stroke-width:0.264583px;stroke-linecap:butt;stroke-linejoin:miter;stroke-opacity:1"
     d="m 26.944803,23.533385 0.516742,0.66268"
     id="path78850" />
  <path
     style="fill:none;stroke:#000000;stroke-width:0.264583px;stroke-linecap:butt;stroke-linejoin:miter;stroke-opacity:1"
     d="m 27.885492,24.814085 0.564597,0.77144"
     id="path78852" />
  <path
     style="fill:none;stroke:#000000;stroke-width:0.264583px;stroke-linecap:butt;stroke-linejoin:miter;stroke-opacity:1"
     d="m 28.928332,26.383425 0.520432,0.70244"
     id="path78854" />
  <path
     style="fill:none;stroke:#000000;stroke-width:0.264583px;stroke-linecap:butt;stroke-linejoin:miter;stroke-opacity:1"
     d="m 29.972433,27.967795 0.520555,0.6449"
     id="path78856" />
  <path
     style="fill:none;stroke:#000000;stroke-width:0.264583px;stroke-linecap:butt;stroke-linejoin:miter;stroke-opacity:1"
     d="m 31.159015,29.577065 0.337016,0.41365"
     id="path78858" />
  <path
     style="fill:none;stroke:#000000;stroke-width:0.264583px;stroke-linecap:butt;stroke-linejoin:miter;stroke-opacity:1"
     d="m 32.021282,30.754245 0.582699,0.72628"
     id="path78860" />
  <path
     style="fill:none;stroke:#000000;stroke-width:0.264583px;stroke-linecap:butt;stroke-linejoin:miter;stroke-opacity:1"
     d="m 33.072717,32.121735 0.488482,0.57534"
     id="path78862" />
  <path
     style="fill:#fcf9d3;fill-opacity:0;stroke:#000000;stroke-width:1;stroke-linecap:round;stroke-linejoin:round;stroke-miterlimit:4;stroke-dasharray:none;stroke-opacity:1"
     d="m 28.257169,12.121355 c -1.332056,0.60332 -8.494973,8.52086 -9.588882,10.58283 0.758044,4.7045 10.653458,17.1704 11.976199,17.74664 4.347886,0.0437 26.667566,-5.61614 36.061236,-10.08692 -2.713235,-7.93885 -8.716352,-13.3377 -12.110195,-16.29855 -2.832417,-1.89452 -10.548519,-3.95347 -13.02533,-4.02549"
     id="path20381" />
</svg>
