<?xml version="1.0" encoding="UTF-8" standalone="no"?>
<!-- Created with Inkscape (http://www.inkscape.org/) -->

<svg
   width="82.696571mm"
   height="49.971661mm"
   viewBox="0 0 82.696571 49.971661"
   version="1.1"
   id="svg1073"
   xmlns="http://www.w3.org/2000/svg"
   xmlns:svg="http://www.w3.org/2000/svg">
  <defs
     id="defs1070" />
  <path
     style="fill:#ffffff;fill-opacity:1;stroke:none;stroke-width:0.264583px;stroke-linecap:butt;stroke-linejoin:miter;stroke-opacity:1"
     d="m 40.273892,24.231733 c -9.71505,-13.98812 -11.26328,-10.19017 -3.76252,0.61311 10.72684,15.44978 10.46412,7.89786 3.76252,-0.61311 z"
     id="path34602" />
  <path
     style="fill:#dbd8b1;fill-opacity:1;stroke:none;stroke-width:0.264583px;stroke-linecap:butt;stroke-linejoin:miter;stroke-opacity:1"
     d="m 29.575052,39.192963 c 12.63952,-2.30772 35.8873,-9.87474 35.8873,-9.87474 1.87102,-2.94561 -9.47379,0.49867 -20.73185,4.47813 -2.56435,-1.28511 -13.74932,-4.70078 -15.15545,5.39661 z"
     id="path94651" />
  <path
     style="fill:#fcf9d3;fill-opacity:1;stroke:none;stroke-width:0.264583px;stroke-linecap:butt;stroke-linejoin:miter;stroke-opacity:1"
     d="m 18.975982,23.347373 c 5.1796,-3.77461 10.5823,-4.90644 15.95406,-6.40469 l -2.28064,-1.63566 c 7.17942,-2.07111 14.28511,-2.53008 21.36257,-2.37185 6.76506,4.89635 9.0443,10.51176 11.29552,16.13166 -2.05313,-2.41848 -11.4889,1.71648 -19.3935,4.24477 l -1.30294,-1.43513 c -5.44144,1.92045 -11.72675,2.96384 -14.9794,7.15922 -4.22402,-4.55574 -8.05947,-9.50095 -10.65567,-15.68832 z"
     id="path95966" />
  <path
     style="fill:none;stroke:#000000;stroke-width:0.5;stroke-linecap:round;stroke-linejoin:round;stroke-miterlimit:4;stroke-dasharray:none;stroke-opacity:1"
     d="m 32.608902,27.596823 c 0.33617,-1.37352 0.91073,-2.30167 2.37856,-4.11676 -1.87292,-0.81948 -3.45856,-1.09762 -5.97668,-1.18014"
     id="path12347" />
  <path
     style="fill:none;stroke:#000000;stroke-width:0.264583px;stroke-linecap:round;stroke-linejoin:round;stroke-opacity:1"
     d="m 33.329882,17.732883 0.37339,0.6761"
     id="path80846" />
  <path
     style="fill:none;stroke:#000000;stroke-width:0.264583px;stroke-linecap:butt;stroke-linejoin:miter;stroke-opacity:1"
     d="m 34.150112,19.238183 0.55435,0.951"
     id="path80848" />
  <path
     style="fill:none;stroke:#000000;stroke-width:0.264583px;stroke-linecap:butt;stroke-linejoin:miter;stroke-opacity:1"
     d="m 35.272852,21.114053 0.4187,0.54899"
     id="path80850" />
  <path
     style="fill:none;stroke:#000000;stroke-width:0.264583px;stroke-linecap:butt;stroke-linejoin:miter;stroke-opacity:1"
     d="m 36.310372,22.562883 0.51674,0.66268"
     id="path80852" />
  <path
     style="fill:none;stroke:#000000;stroke-width:0.264583px;stroke-linecap:butt;stroke-linejoin:miter;stroke-opacity:1"
     d="m 37.251062,23.843583 0.5646,0.77144"
     id="path80854" />
  <path
     style="fill:none;stroke:#000000;stroke-width:0.264583px;stroke-linecap:butt;stroke-linejoin:miter;stroke-opacity:1"
     d="m 38.293902,25.412923 0.52043,0.70244"
     id="path80856" />
  <path
     style="fill:none;stroke:#000000;stroke-width:0.264583px;stroke-linecap:butt;stroke-linejoin:miter;stroke-opacity:1"
     d="m 39.338002,26.997293 0.52056,0.6449"
     id="path80858" />
  <path
     style="fill:none;stroke:#000000;stroke-width:0.264583px;stroke-linecap:butt;stroke-linejoin:miter;stroke-opacity:1"
     d="m 40.524582,28.606563 0.33702,0.41365"
     id="path80860" />
  <path
     style="fill:none;stroke:#000000;stroke-width:0.264583px;stroke-linecap:butt;stroke-linejoin:miter;stroke-opacity:1"
     d="m 41.386852,29.783743 0.5827,0.72628"
     id="path80862" />
  <path
     style="fill:none;stroke:#000000;stroke-width:0.264583px;stroke-linecap:butt;stroke-linejoin:miter;stroke-opacity:1"
     d="m 42.438292,31.151233 0.48848,0.57534"
     id="path80864" />
  <path
     style="fill:none;stroke:#000000;stroke-width:1;stroke-linecap:round;stroke-linejoin:round;stroke-miterlimit:4;stroke-dasharray:none;stroke-opacity:1"
     d="m 63.305772,28.518003 c -3.43433,0.44735 -14.83731,3.55165 -18.12902,5.07561"
     id="path80935" />
  <path
     style="fill:none;stroke:#000000;stroke-width:1;stroke-linecap:round;stroke-linejoin:round;stroke-miterlimit:4;stroke-dasharray:none;stroke-opacity:1"
     d="m 30.793492,37.687833 c 2.10616,-1.77413 11.74192,-5.09488 13.7354,-5.58931"
     id="path81434" />
  <path
     style="fill:none;stroke:#000000;stroke-width:1;stroke-linecap:round;stroke-linejoin:round;stroke-miterlimit:4;stroke-dasharray:none;stroke-opacity:1"
     d="m 42.938632,33.170703 c 0.44028,0.65124 2.9933,1.41809 1.91925,-0.90959 -1.07406,-2.32767 -6.51496,-11.9706 -11.4018,-16.14009 -2.35463,-2.00899 -1.71437,0.59157 -1.71437,1.08532"
     id="path81255" />
  <path
     style="fill:none;stroke:#000000;stroke-width:1;stroke-linecap:round;stroke-linejoin:round;stroke-miterlimit:4;stroke-dasharray:none;stroke-opacity:1"
     d="m 34.018382,16.831413 c -3.22789,0.9464 -12.52314,3.19339 -15.22422,6.6235 1.89484,4.9807 7.2091,12.19526 10.92494,15.6304 6.88533,-0.86917 26.96697,-6.54369 35.65954,-9.88834 -0.20983,-3.32081 -7.10309,-14.35592 -11.32152,-16.38501 -5.95829,-0.39473 -17.84841,0.94679 -22.05329,2.51013"
     id="path82262" />
  <path
     style="fill:none;stroke:#000000;stroke-width:0.5;stroke-linecap:round;stroke-linejoin:round;stroke-miterlimit:4;stroke-dasharray:none;stroke-opacity:1"
     d="m 17.732962,33.005683 c 2.33867,-3.21434 8.30352,-7.74479 16.98326,-9.5121"
     id="path11790" />
</svg>
