<?xml version="1.0" encoding="UTF-8" standalone="no"?>
<!-- Created with Inkscape (http://www.inkscape.org/) -->

<svg
   width="82.696571mm"
   height="49.971661mm"
   viewBox="0 0 82.696571 49.971661"
   version="1.1"
   id="svg1073"
   xmlns="http://www.w3.org/2000/svg"
   xmlns:svg="http://www.w3.org/2000/svg">
  <defs
     id="defs1070" />
  <g
     id="layer1"
     transform="translate(54.918781,-11.460645)">
    <path
       style="fill:#ffffff;fill-opacity:1;stroke:none;stroke-width:0.264583px;stroke-linecap:butt;stroke-linejoin:miter;stroke-opacity:1"
       d="m -30.669279,56.321223 c -5.02942,-9.957479 -12.13496,-17.810552 -19.10556,-25.800391 18.98546,-6.027391 38.04851,-11.876325 58.3157703,-14.955004 7.5435397,8.263316 12.7040997,16.327929 16.5882697,24.28611 z"
       id="path31146" />
    <path
       style="fill:none;stroke:#000000;stroke-width:1;stroke-linecap:round;stroke-linejoin:round;stroke-miterlimit:4;stroke-dasharray:none;stroke-opacity:1"
       d="m -50.519709,29.713303 c 0,0 13.26878,14.400424 19.36808,26.264222 9.72616,-3.852591 31.21784032,-13.119958 55.48478,-17.217974 C 19.988171,29.422736 15.018281,23.976078 8.6356713,15.472503 -12.052889,19.058457 -30.741509,24.365867 -51.013439,30.925724"
       id="path847" />
    <path
       style="fill:#fcf9d3;fill-opacity:1;stroke:none;stroke-width:0.264583px;stroke-linecap:butt;stroke-linejoin:miter;stroke-opacity:1"
       d="m -31.635499,43.811696 56.01482,-14.910422 0.60447,10.880577 c -17.6913997,6.704093 -36.34766,11.550354 -55.09196,16.227094 0.35991,-3.935159 -0.65062,-8.074835 -1.52733,-12.197249 z"
       id="path7182" />
    <path
       style="fill:none;fill-opacity:1;stroke:#000000;stroke-width:1;stroke-linecap:round;stroke-linejoin:round;stroke-miterlimit:4;stroke-dasharray:none;stroke-opacity:1"
       d="m -30.225059,54.893766 c 0,-3.626861 -0.80597,-6.447752 -1.41044,-11.08207 18.94026,-6.044766 50.77602,-13.096991 56.01482,-14.910422 0.40299,4.231335 0.40299,6.246257 0.60447,10.880577 -9.26863,4.63432 -55.41034,16.925343 -58.02974,16.925343"
       id="path851" />
    <path
       style="fill:none;stroke:#000000;stroke-width:0.5;stroke-linecap:round;stroke-linejoin:round;stroke-miterlimit:4;stroke-dasharray:none;stroke-opacity:1"
       d="M 16.118151,56.908687 C 15.715171,49.050491 12.088281,41.595281 6.2450113,40.587819"
       id="path853" />
    <path
       style="fill:none;stroke:#000000;stroke-width:0.5;stroke-linecap:round;stroke-linejoin:round;stroke-miterlimit:4;stroke-dasharray:none;stroke-opacity:1"
       d="m 15.790451,39.303558 c -5.44031,0.604475 -9.0671597,0.805969 -10.0746097,1.813428 2.61939,3.425368 1.41043,5.641782 2.21641,8.462672"
       id="path855" />
    <g
       id="g5540"
       transform="translate(-281.23047,-25.740563)">
      <path
         style="fill:none;stroke:#000000;stroke-width:0.264583px;stroke-linecap:round;stroke-linejoin:round;stroke-opacity:1"
         d="m 274.94105,64.42934 c 2.43152,-0.685294 11.12922,-2.915764 11.12922,-2.915764"
         id="path5528" />
      <path
         style="fill:none;stroke:#000000;stroke-width:0.264583px;stroke-linecap:round;stroke-linejoin:round;stroke-opacity:1"
         d="m 277.84052,65.005325 8.44034,5.006046"
         id="path5530" />
      <path
         style="fill:none;stroke:#000000;stroke-width:0.264583px;stroke-linecap:round;stroke-linejoin:round;stroke-opacity:1"
         d="m 284.37657,63.41574 -4.27821,8.362815"
         id="path5532" />
      <path
         style="fill:none;stroke:#000000;stroke-width:0.265;stroke-linecap:round;stroke-linejoin:round;stroke-miterlimit:4;stroke-dasharray:none;stroke-opacity:1"
         d="m 280.90701,67.871527 c 0,0 -0.70084,0.255382 -1.30453,0.523163 0.44239,0.683001 1.1378,2.030666 1.54567,3.138975 0.71692,-0.420513 1.28471,-0.681194 1.86735,-0.68814"
         id="path5534" />
      <path
         style="fill:none;stroke:#000000;stroke-width:0.264583px;stroke-linecap:round;stroke-linejoin:round;stroke-opacity:1"
         d="m 281.49142,64.211218 c 0.4903,-0.120507 1.52971,0.4946 0.86397,0.864513 -0.94202,0.523426 -1.69143,-0.596459 -0.57221,-0.846929"
         id="path5536" />
      <path
         style="fill:none;stroke:#000000;stroke-width:0.264583px;stroke-linecap:round;stroke-linejoin:round;stroke-opacity:1"
         d="m 279.37515,66.194032 c 2.88774,-0.539324 3.12302,-0.668462 3.79382,-0.967568 0.58621,0.370982 0.93429,1.202425 0.96808,1.591527 0.0338,0.389099 0.26087,2.550718 0.50879,3.283346 -0.54612,-0.714128 -0.76361,-1.266403 -1.28112,-2.173872 0,0.815641 -0.26969,1.502789 -0.30945,2.210425 -0.17908,-1.108889 -0.23541,-3.270056 -1.11097,-3.878653"
         id="path5538" />
    </g>
  </g>
</svg>
