<?xml version="1.0" encoding="UTF-8" standalone="no"?>
<!-- Created with Inkscape (http://www.inkscape.org/) -->

<svg
   width="82.696571mm"
   height="49.971661mm"
   viewBox="0 0 82.696571 49.971661"
   version="1.1"
   id="svg1073"
   xmlns="http://www.w3.org/2000/svg"
   xmlns:svg="http://www.w3.org/2000/svg">
  <defs
     id="defs1070" />
  <path
     style="fill:#ffffff;fill-opacity:1;stroke:none;stroke-width:0.264583px;stroke-linecap:butt;stroke-linejoin:miter;stroke-opacity:1"
     d="m 7.3470794,23.758976 c 4.8527696,5.03781 9.0731496,10.47509 11.5011896,17.04458 L 68.751568,26.581416 53.723128,11.335727 Z"
     id="path32454" />
  <path
     style="fill:none;stroke:#000000;stroke-width:1;stroke-linecap:round;stroke-linejoin:round;stroke-miterlimit:4;stroke-dasharray:none;stroke-opacity:1"
     d="m 7.7487694,24.118206 c 0,0 4.9561796,4.50746 11.0554796,16.37125 9.72616,-3.85259 31.217839,-13.11995 55.484779,-17.21797 -4.34498,-9.336817 -6.15375,-10.970974 -9.83151,-15.3904608"
     id="path18100" />
  <path
     style="fill:#fcf9d3;fill-opacity:1;stroke:#000000;stroke-width:1;stroke-linecap:round;stroke-linejoin:round;stroke-miterlimit:4;stroke-dasharray:none;stroke-opacity:1"
     d="m 19.577119,41.611696 c -0.7985,-4.05993 -3.07152,-7.71905 -6.11928,-11.37468 18.94026,-6.04476 51.584309,-13.513665 56.823109,-15.327096 1.77416,3.0469 3.55365,4.471473 4.65872,9.383866 -9.26863,4.63432 -55.410339,16.92534 -58.029739,16.92534"
     id="path18102" />
  <g
     id="g18116"
     transform="translate(-233.21679,-40.675558)">
    <path
       style="fill:none;stroke:#000000;stroke-width:0.264583px;stroke-linecap:round;stroke-linejoin:round;stroke-opacity:1"
       d="m 274.94105,64.42934 c 2.43152,-0.685294 11.12922,-2.915764 11.12922,-2.915764"
       id="path18104" />
    <path
       style="fill:none;stroke:#000000;stroke-width:0.264583px;stroke-linecap:round;stroke-linejoin:round;stroke-opacity:1"
       d="m 277.84052,65.005325 8.44034,5.006046"
       id="path18106" />
    <path
       style="fill:none;stroke:#000000;stroke-width:0.264583px;stroke-linecap:round;stroke-linejoin:round;stroke-opacity:1"
       d="m 284.37657,63.41574 -4.27821,8.362815"
       id="path18108" />
    <path
       style="fill:none;stroke:#000000;stroke-width:0.265;stroke-linecap:round;stroke-linejoin:round;stroke-miterlimit:4;stroke-dasharray:none;stroke-opacity:1"
       d="m 280.90701,67.871527 c 0,0 -0.70084,0.255382 -1.30453,0.523163 0.44239,0.683001 1.1378,2.030666 1.54567,3.138975 0.71692,-0.420513 1.28471,-0.681194 1.86735,-0.68814"
       id="path18110" />
    <path
       style="fill:none;stroke:#000000;stroke-width:0.264583px;stroke-linecap:round;stroke-linejoin:round;stroke-opacity:1"
       d="m 281.49142,64.211218 c 0.4903,-0.120507 1.52971,0.4946 0.86397,0.864513 -0.94202,0.523426 -1.69143,-0.596459 -0.57221,-0.846929"
       id="path18112" />
    <path
       style="fill:none;stroke:#000000;stroke-width:0.264583px;stroke-linecap:round;stroke-linejoin:round;stroke-opacity:1"
       d="m 279.37515,66.194032 c 2.88774,-0.539324 3.12302,-0.668462 3.79382,-0.967568 0.58621,0.370982 0.93429,1.202425 0.96808,1.591527 0.0338,0.389099 0.26087,2.550718 0.50879,3.283346 -0.54612,-0.714128 -0.76361,-1.266403 -1.28112,-2.173872 0,0.815641 -0.26969,1.502789 -0.30945,2.210425 -0.17908,-1.108889 -0.23541,-3.270056 -1.11097,-3.878653"
       id="path18114" />
  </g>
  <path
     style="fill:none;stroke:#000000;stroke-width:0.264583px;stroke-linecap:butt;stroke-linejoin:miter;stroke-opacity:1"
     d="m 43.499999,23.829246 c 6.222309,-0.85306 11.470169,-2.991233 11.470169,-2.991233"
     id="path18118" />
  <path
     style="fill:#fcf9d3;fill-opacity:1;stroke:#000000;stroke-width:1;stroke-linecap:round;stroke-linejoin:round;stroke-miterlimit:4;stroke-dasharray:none;stroke-opacity:1"
     d="m 7.2195994,23.589036 c 3.9365696,0.66796 10.3912896,11.31326 11.9387596,13.48882 12.21898,-3.45819 44.431989,-10.95455 55.940969,-15.488015 C 72.791868,16.273784 68.586178,11.070725 64.986688,7.3518582 60.967508,8.0767272 7.7733094,23.068976 6.9572494,24.278236"
     id="path18120" />
  <path
     style="fill:none;stroke:#000000;stroke-width:0.264583px;stroke-linecap:butt;stroke-linejoin:miter;stroke-opacity:1"
     d="m 42.043499,28.617306 c 6.222309,-0.85306 11.470169,-2.99123 11.470169,-2.99123"
     id="path18122" />
</svg>
