<?xml version="1.0" encoding="UTF-8" standalone="no"?>
<!-- Created with Inkscape (http://www.inkscape.org/) -->

<svg
   width="82.696571mm"
   height="49.971661mm"
   viewBox="0 0 82.696571 49.971661"
   version="1.1"
   id="svg1073"
   xmlns="http://www.w3.org/2000/svg"
   xmlns:svg="http://www.w3.org/2000/svg">
  <defs
     id="defs1070" />
  <g
     id="layer1"
     transform="translate(54.918781,-11.460645)">
    <path
       style="fill:#ffffff;fill-opacity:1;stroke:none;stroke-width:0.264583px;stroke-linecap:butt;stroke-linejoin:miter;stroke-opacity:1"
       d="m -47.586957,35.698131 c 4.852769,5.03781 9.073149,10.47509 11.501186,17.04458 L 13.81754,38.520571 -1.2109099,23.274881 Z"
       id="path31812" />
    <path
       style="fill:none;stroke:#000000;stroke-width:1;stroke-linecap:round;stroke-linejoin:round;stroke-miterlimit:4;stroke-dasharray:none;stroke-opacity:1"
       d="m -47.520834,35.728011 c 0,0 4.95618,4.50746 11.05548,16.37125 9.72616,-3.85259 31.2178441,-13.11995 55.484784,-17.21797 C 14.67445,25.544477 12.86568,23.91032 9.1879201,19.490833"
       id="path5930" />
    <path
       style="fill:#fcf9d3;fill-opacity:1;stroke:#000000;stroke-width:1;stroke-linecap:round;stroke-linejoin:round;stroke-miterlimit:4;stroke-dasharray:none;stroke-opacity:1"
       d="m -35.692484,53.221501 c -0.7985,-4.05993 -3.21499,-8.58404 -5.70379,-12.18096 18.94026,-6.04476 51.584314,-13.513667 56.823114,-15.327098 1.77416,3.0469 3.13816,5.277758 4.24323,10.190148 -9.26863,4.63432 -55.410344,16.92534 -58.029744,16.92534"
       id="path5932" />
    <g
       id="g5946"
       transform="translate(-288.48639,-29.06575)">
      <path
         style="fill:none;stroke:#000000;stroke-width:0.264583px;stroke-linecap:round;stroke-linejoin:round;stroke-opacity:1"
         d="m 274.94105,64.42934 c 2.43152,-0.685294 11.12922,-2.915764 11.12922,-2.915764"
         id="path5934" />
      <path
         style="fill:none;stroke:#000000;stroke-width:0.264583px;stroke-linecap:round;stroke-linejoin:round;stroke-opacity:1"
         d="m 277.84052,65.005325 8.44034,5.006046"
         id="path5936" />
      <path
         style="fill:none;stroke:#000000;stroke-width:0.264583px;stroke-linecap:round;stroke-linejoin:round;stroke-opacity:1"
         d="m 284.37657,63.41574 -4.27821,8.362815"
         id="path5938" />
      <path
         style="fill:none;stroke:#000000;stroke-width:0.265;stroke-linecap:round;stroke-linejoin:round;stroke-miterlimit:4;stroke-dasharray:none;stroke-opacity:1"
         d="m 280.90701,67.871527 c 0,0 -0.70084,0.255382 -1.30453,0.523163 0.44239,0.683001 1.1378,2.030666 1.54567,3.138975 0.71692,-0.420513 1.28471,-0.681194 1.86735,-0.68814"
         id="path5940" />
      <path
         style="fill:none;stroke:#000000;stroke-width:0.264583px;stroke-linecap:round;stroke-linejoin:round;stroke-opacity:1"
         d="m 281.49142,64.211218 c 0.4903,-0.120507 1.52971,0.4946 0.86397,0.864513 -0.94202,0.523426 -1.69143,-0.596459 -0.57221,-0.846929"
         id="path5942" />
      <path
         style="fill:none;stroke:#000000;stroke-width:0.264583px;stroke-linecap:round;stroke-linejoin:round;stroke-opacity:1"
         d="m 279.37515,66.194032 c 2.88774,-0.539324 3.12302,-0.668462 3.79382,-0.967568 0.58621,0.370982 0.93429,1.202425 0.96808,1.591527 0.0338,0.389099 0.26087,2.550718 0.50879,3.283346 -0.54612,-0.714128 -0.76361,-1.266403 -1.28112,-2.173872 0,0.815641 -0.26969,1.502789 -0.30945,2.210425 -0.17908,-1.108889 -0.23541,-3.270056 -1.11097,-3.878653"
         id="path5944" />
    </g>
    <path
       style="fill:none;stroke:#000000;stroke-width:0.264583px;stroke-linecap:butt;stroke-linejoin:miter;stroke-opacity:1"
       d="m -11.769604,35.439051 c 6.2223141,-0.85306 11.47017415,-2.99123 11.47017415,-2.99123"
       id="path13347" />
    <path
       style="fill:#fcf9d3;fill-opacity:1;stroke:#000000;stroke-width:1;stroke-linecap:round;stroke-linejoin:round;stroke-miterlimit:4;stroke-dasharray:none;stroke-opacity:1"
       d="m -48.050004,35.198841 c 3.93657,0.66796 12.75146,6.20018 14.29893,8.37574 C -21.532094,40.116391 10.68092,32.620031 22.1899,28.086572 17.50883,22.22131 13.40333,20.829914 9.7170901,18.961666 5.6979101,19.686535 -47.496294,34.678781 -48.312354,35.888041"
       id="path11000" />
    <path
       style="fill:none;stroke:#000000;stroke-width:0.264583px;stroke-linecap:butt;stroke-linejoin:miter;stroke-opacity:1"
       d="m -11.769604,35.439051 c 6.2223141,-0.85306 11.47017415,-2.99123 11.47017415,-2.99123"
       id="path15156" />
    <path
       style="fill:none;stroke:#000000;stroke-width:0.5;stroke-linecap:round;stroke-linejoin:round;stroke-miterlimit:4;stroke-dasharray:none;stroke-opacity:1"
       d="m -25.071966,23.462652 c 6.66684,-2.457587 13.05933,2.875381 13.05933,6.656289"
       id="path13495" />
    <path
       style="fill:none;stroke:#000000;stroke-width:0.5;stroke-linecap:round;stroke-linejoin:round;stroke-miterlimit:4;stroke-dasharray:none;stroke-opacity:1"
       d="m -18.782336,28.539427 c 4.46778,0.474553 4.38706,0.319922 7.463536,1.45739 0.79072,-3.215495 0.54141,-4.87557 -0.014,-7.613744"
       id="path13969" />
  </g>
</svg>
