<?xml version="1.0" encoding="UTF-8" standalone="no"?>
<!-- Created with Inkscape (http://www.inkscape.org/) -->

<svg
   width="82.696571mm"
   height="49.971661mm"
   viewBox="0 0 82.696571 49.971661"
   version="1.1"
   id="svg1073"
   xmlns="http://www.w3.org/2000/svg"
   xmlns:svg="http://www.w3.org/2000/svg">
  <defs
     id="defs1070" />
  <path
     style="fill:#ffffff;fill-opacity:1;stroke:none;stroke-width:0.264583px;stroke-linecap:butt;stroke-linejoin:miter;stroke-opacity:1"
     d="m 44.656062,32.000743 c 2.35685,3.02525 5.03821,1.12335 2.92555,-1.08046 -2.11267,-2.20381 -4.816609,-1.73447 -2.92555,1.08046 z"
     id="path35424" />
  <path
     style="fill:#dbd8b1;fill-opacity:1;stroke:none;stroke-width:0.264583px;stroke-linecap:butt;stroke-linejoin:miter;stroke-opacity:1"
     d="m 48.021702,31.699643 c 0,0 -16.734796,5.38514 -17.569824,4.79141 -0.835028,-0.59374 7.581058,-15.19051 16.633754,-15.33363 9.05269,-0.14312 19.09169,3.40985 19.27917,5.31308 0.18748,1.90323 -13.70108,5.87022 -18.36264,7.266 -0.0458,-0.6202 0.0195,-2.03686 0.0195,-2.03686 z"
     id="path23564" />
  <path
     style="fill:#fcf9d3;fill-opacity:1;stroke:none;stroke-width:0.264583px;stroke-linecap:butt;stroke-linejoin:miter;stroke-opacity:1"
     d="m 19.370061,21.262403 11.146141,15.44817 c 0.905005,-2.51368 23.53286,-9.49837 35.6401,-10.55399 -2.58884,-5.60106 -4.88587,-10.66691 -11.3841,-15.48691 -10.88361,1.02854 -22.374942,3.71528 -35.402141,10.59273 z"
     id="path21003" />
  <path
     style="fill:none;stroke:#000000;stroke-width:1;stroke-linecap:round;stroke-linejoin:round;stroke-miterlimit:4;stroke-dasharray:none;stroke-opacity:1"
     d="m 64.157302,26.234913 c -7.72091,1.22641 -30.825601,7.29483 -33.281638,9.84945 -2.456037,2.55463 17.058828,-4.11496 17.058828,-4.11496"
     id="path13584" />
  <path
     style="fill:none;stroke:#000000;stroke-width:1;stroke-linecap:round;stroke-linejoin:round;stroke-miterlimit:4;stroke-dasharray:none;stroke-opacity:1"
     d="m 47.133942,30.472833 c 1.35935,1.52566 1.44458,4.36095 -0.86474,2.66521"
     id="path14471" />
  <path
     style="fill:none;stroke:#000000;stroke-width:1;stroke-linecap:round;stroke-linejoin:round;stroke-miterlimit:4;stroke-dasharray:none;stroke-opacity:1"
     d="m 47.769802,33.768483 c 6.84655,-2.09629 13.71162,-4.77735 18.48799,-6.91815 -0.26166,-2.6783 -6.22106,-12.55534 -11.48559,-16.18066 -13.123749,0.20147 -30.642852,7.25667 -35.044215,10.38486 2.407219,5.36162 9.568167,14.43853 10.862268,15.46163"
     id="path14696" />
  <path
     style="fill:#d8d8d8;fill-opacity:1;stroke:none;stroke-width:0.264583px;stroke-linecap:butt;stroke-linejoin:miter;stroke-opacity:1"
     d="m 30.909002,25.540093 c 2.522773,-2.24933 16.51271,-10.78531 19.84831,-11.77219 1.32668,2.0086 2.57691,2.82343 3.72363,4.62243 -3.96951,1.72925 -17.534536,9.95921 -19.983692,12.21854 -1.484787,-2.31025 -2.427069,-3.82054 -3.588248,-5.06878 z"
     id="path19157" />
  <path
     style="fill:none;stroke:#000000;stroke-width:0.5;stroke-linecap:round;stroke-linejoin:round;stroke-miterlimit:4;stroke-dasharray:none;stroke-opacity:1"
     d="m 39.990916,14.840123 c 1.18087,0.77788 1.86218,1.63076 3.07896,3.62288 1.400826,-1.48898 2.195286,-2.88914 3.118616,-5.23332"
     id="path29094" />
  <path
     style="fill:none;stroke:#000000;stroke-width:0.5;stroke-linecap:round;stroke-linejoin:round;stroke-miterlimit:4;stroke-dasharray:none;stroke-opacity:1"
     d="M 42.880955,18.352913 C 43.040462,2.9272125 32.528763,0.77842254 28.270204,15.596643"
     id="path29281" />
  <path
     style="fill:none;stroke:#000000;stroke-width:0.5;stroke-linecap:round;stroke-linejoin:round;stroke-miterlimit:4;stroke-dasharray:none;stroke-opacity:1"
     d="m 32.826302,43.851183 c -4.304517,1.59589 -9.323719,-0.71367 -8.09099,-13.16964"
     id="path29593" />
</svg>
