<?xml version="1.0" encoding="UTF-8" standalone="no"?>
<!-- Created with Inkscape (http://www.inkscape.org/) -->

<svg
   width="206.30472mm"
   height="40.185661mm"
   viewBox="0 0 206.30472 40.185661"
   version="1.1"
   id="svg5"
   xmlns="http://www.w3.org/2000/svg"
   xmlns:svg="http://www.w3.org/2000/svg">
  <defs
     id="defs2" />
  <g
     id="layer1"
     transform="translate(-1.8024739,-93.149353)">
    <path
       id="path9854"
       style="font-size:39.8273px;line-height:1.25;font-family:'VIDEO PIRATE';-inkscape-font-specification:'VIDEO PIRATE, Normal';stroke-width:3.76322"
       d="m 773.15039,352.06055 c -0.80282,0 -1.70547,0.55237 -2.70898,1.65625 -0.90331,1.10387 -1.45569,2.05655 -1.65625,2.85937 -0.50187,1.50528 -0.60184,3.06233 -0.30078,4.66797 0.3012,1.50529 0.20098,2.91027 -0.30079,4.21484 -0.30112,0.30107 -0.50323,0.55126 -0.60351,0.75196 -0.20077,0.20071 -0.35089,0.40087 -0.45117,0.60156 -0.30106,0.30106 -0.45118,0.65328 -0.45118,1.05469 -0.10035,0.50176 -0.30051,1.25429 -0.60156,2.25781 -0.20082,1.00353 -0.30273,1.60595 -0.30273,1.80664 v 16.70703 c 0,1.00354 0.35222,1.95817 1.05468,2.86133 0.70249,0.80282 1.50505,1.60538 2.40821,2.4082 0.90318,0.80283 1.70574,1.60538 2.4082,2.40821 0.70246,0.80279 1.05469,1.65541 1.05469,2.55859 0,0.6021 -0.20211,1.20451 -0.60352,1.80664 -0.30105,0.50175 -0.65132,1.00409 -1.05273,1.50586 -0.40141,0.50177 -0.80367,1.05415 -1.20508,1.65625 -0.30113,0.50177 -0.50128,1.05219 -0.60156,1.6543 -0.20069,0.40141 -0.45088,1.30601 -0.75195,2.71093 -0.20057,1.3046 -0.30079,2.20724 -0.30079,2.70899 -0.80294,0.40141 -1.30529,0.95379 -1.50586,1.65625 -0.20071,0.70246 -0.70303,1.20283 -1.50585,1.5039 -0.90316,0.30113 -1.9059,0.50324 -3.00977,0.60352 -1.10387,0 -2.20863,0.0501 -3.3125,0.15039 -1.00354,0 -2.00625,0.1 -3.00977,0.30078 -1.00351,0.10036 -1.95619,0.45063 -2.85937,1.05274 -0.10034,0.10036 -0.3525,0.35249 -0.75391,0.7539 -0.40131,0.40139 -0.70152,0.60157 -0.90234,0.60157 -0.50175,0.20079 -1.15421,0.35088 -1.95703,0.45117 h -1.95703 c -1.9067,0 -3.36172,-0.60241 -4.36524,-1.80664 -1.00351,-1.3046 -2.20835,-2.50746 -3.61328,-3.61133 -0.60213,-0.40129 -1.1545,-0.70348 -1.65625,-0.9043 -0.50177,-0.20069 -0.9521,-0.45087 -1.35351,-0.75195 -0.30106,-0.30105 -0.60325,-0.70331 -0.9043,-1.20508 -0.20082,-0.50174 -0.30078,-1.20424 -0.30078,-2.10742 v -0.30078 -1.20313 c 0,-0.50177 0.0501,-1.00411 0.15039,-1.50586 l 0.30078,-1.80664 v -0.60156 c 0.10028,-0.30095 0.15039,-0.55309 0.15039,-0.75391 0.50177,-0.6021 0.95406,-1.15252 1.35547,-1.65429 0.40141,-0.60211 0.60156,-1.3046 0.60156,-2.10742 v -9.63477 c 0,-0.8028 -0.4003,-1.55532 -1.20312,-2.25781 -0.70237,-0.70247 -1.15465,-1.50505 -1.35547,-2.40821 -0.20057,-1.30459 -0.30078,-2.45937 -0.30078,-3.46289 0,-1.00351 -0.1501,-1.8561 -0.45118,-2.55859 -0.30105,-0.70247 -0.85342,-1.25484 -1.65625,-1.65625 -0.70246,-0.40141 -1.85531,-0.60156 -3.46093,-0.60156 -0.40141,0 -0.95379,0.05 -1.65625,0.15039 -0.70247,0 -1.25484,0.10006 -1.65625,0.30078 -0.10036,0 -0.35055,0.15011 -0.75196,0.45117 -0.40141,0.2007 -0.8537,0.45285 -1.35547,0.75391 -0.40141,0.30105 -0.80369,0.60128 -1.20507,0.90234 -0.40149,0.20069 -0.65167,0.30078 -0.75196,0.30078 -0.90318,0.50176 -1.50559,1.00409 -1.80664,1.50586 -0.20056,0.50175 -0.30078,1.05412 -0.30078,1.65625 0,0.50175 -0.0501,1.10415 -0.15039,1.80664 0,0.60211 -0.20015,1.35466 -0.60156,2.25781 0,0.10036 -0.20015,0.45061 -0.60156,1.05274 -0.40154,0.50182 -0.70373,0.80401 -0.9043,0.9043 v 1.05273 c 0,0.90318 0.20015,1.70574 0.60156,2.4082 0.50182,0.70247 0.80401,1.50505 0.9043,2.40821 0.20057,0.90318 0.30078,1.75772 0.30078,2.56054 0.10028,0.70247 0.15039,1.50503 0.15039,2.40821 0,1.2042 -0.10021,2.25697 -0.30078,3.16015 -0.10023,0.80282 -0.25035,1.60538 -0.45117,2.40821 -0.20072,0.70246 -0.45286,1.45499 -0.75391,2.25781 -0.20084,0.70246 -0.40099,1.55703 -0.60156,2.56055 v 5.71874 5.57032 3.16015 c 0,0.60211 0.0501,1.25455 0.15039,1.95703 l 1.50586,1.35547 1.05273,5.11719 c 0,0.20069 0.25214,0.50289 0.75391,0.9043 0.50174,0.30105 1.00213,0.70135 1.50391,1.20312 0.50177,0.40141 0.95405,0.8537 1.35546,1.35547 0.50175,0.50175 0.75196,1.00409 0.75196,1.50586 0,0.50177 -0.20015,0.90207 -0.60157,1.20313 -0.30105,0.30105 -0.70333,0.60324 -1.20507,0.90429 -0.50177,0.30106 -1.00214,0.60127 -1.50391,0.90235 -0.40141,0.20069 -0.75364,0.4509 -1.05469,0.75195 0,0.20072 -0.10021,0.55294 -0.30078,1.05469 -0.20082,0.40131 -0.30078,0.70152 -0.30078,0.90234 -0.20069,0.50175 -0.60295,0.95406 -1.20508,1.35547 -0.50182,0.40141 -0.80206,0.90373 -0.90234,1.50586 -0.10054,0.30105 -0.2005,0.80144 -0.30078,1.50391 0,0.70246 -0.0501,1.45499 -0.15039,2.25781 v 2.10742 1.50586 1.20508 c 0,1.30459 0.2502,2.50745 0.75195,3.61133 0.50177,1.10387 0.75195,2.30871 0.75195,3.61328 0,1.10387 -0.10021,2.20862 -0.30078,3.3125 -0.10028,1.00354 -0.15039,2.05628 -0.15039,3.16015 0,0.50175 0.0501,1.00409 0.15039,1.50586 0.20057,0.40141 0.30078,0.85175 0.30078,1.35352 v 0.30273 c -0.10028,0.10036 -0.2005,0.45063 -0.30078,1.05274 -0.10053,0.50177 -0.2005,1.05414 -0.30078,1.65625 -0.10028,0.60213 -0.2005,1.1545 -0.30078,1.65625 v 0.90234 c 0,0.20069 0.15012,0.75307 0.45117,1.65625 0.30105,0.8027 0.45313,1.30504 0.45313,1.50586 v 3.46094 3.3125 c -0.70247,1.10387 -1.05469,2.2567 -1.05469,3.46093 v 3.3125 2.5586 c 0.10036,0.40141 0.45258,1.05387 1.05469,1.95703 0.6021,0.80282 1.20255,1.65541 1.80468,2.55859 0.70247,0.90316 1.35493,1.70572 1.95703,2.40821 0.70247,0.60218 1.20479,0.9544 1.50586,1.05468 1.20421,0 2.4071,0.0501 3.61133,0.15039 h 3.61328 c 1.20421,10e-6 2.45908,-0.30023 3.76367,-0.90234 1.40493,-0.6021 2.25755,-1.55673 2.5586,-2.86133 0,-0.30105 0.0501,-0.70135 0.15039,-1.20312 0.10053,-0.60211 0.2005,-1.20454 0.30078,-1.80664 0.20077,-0.70249 0.35089,-1.3049 0.45117,-1.80664 0.10029,-0.60226 0.15039,-1.00256 0.15039,-1.20313 0.10036,-0.70246 0.45256,-1.3549 1.05469,-1.95703 0.6021,-0.6021 0.90234,-1.15448 0.90234,-1.65625 v -4.81641 c -0.70246,-0.30105 -1.20285,-0.75336 -1.5039,-1.35546 -0.30113,-0.60213 -0.50323,-1.20454 -0.60352,-1.80665 v -22.42773 c 0,-0.50177 -0.1,-1.40637 -0.30078,-2.71094 -0.10028,-1.40492 -0.15039,-2.30757 -0.15039,-2.70898 -0.20072,-1.10388 -0.70304,-2.15662 -1.50586,-3.16016 -0.70246,-1.00351 -1.05273,-2.05823 -1.05273,-3.16211 v -11.13867 c 0,-0.20069 0.15012,-0.45087 0.45117,-0.75195 0,-0.20069 0.20015,-0.50289 0.60156,-0.9043 0.40141,-0.40149 0.60352,-0.65167 0.60352,-0.75195 0.50164,-0.70246 0.85191,-1.35493 1.05273,-1.95703 0.30105,-0.70247 0.60322,-1.25484 0.9043,-1.65625 0.30105,-0.50165 0.70138,-0.85192 1.20312,-1.05274 0.50177,-0.30107 1.35436,-0.45312 2.5586,-0.45312 1.10387,0 2.10853,0.2021 3.01172,0.60351 1.00351,0.40141 1.95621,0.85175 2.85937,1.35352 l 2.70899,1.20508 c 1.00351,0.30105 2.05823,0.45117 3.1621,0.45117 h 0.60157 c 0.40141,-0.10054 1.15394,-0.2005 2.25781,-0.30078 1.10387,-0.10054 2.25866,-0.2005 3.46289,-0.30078 1.30457,-0.10054 2.50941,-0.20245 3.61328,-0.30274 1.10388,-0.10028 1.90643,-0.15039 2.4082,-0.15039 0.10029,0 0.2005,-0.0501 0.30079,-0.15039 l 0.30078,-0.30078 c 0.6021,-0.40141 1.45472,-0.95379 2.55859,-1.65625 1.10395,-0.70246 1.70636,-1.05274 1.80664,-1.05274 0.10049,-0.10035 0.25061,-0.35054 0.45117,-0.75195 0.2006,-0.50177 0.4027,-0.95406 0.60352,-1.35547 0.30095,-0.50174 0.55113,-0.95405 0.75195,-1.35547 0.20082,-0.50184 0.30078,-0.80206 0.30078,-0.90234 0.2007,-0.20069 0.50289,-0.55292 0.9043,-1.05469 0.50177,-0.60218 0.75195,-0.95245 0.75195,-1.05273 0.10036,-0.10036 0.30051,-0.50262 0.60157,-1.20508 0.30105,-0.80282 0.65327,-1.60541 1.05468,-2.4082 0.40141,-1.00354 0.85175,-2.05628 1.35352,-3.16016 0,-0.20069 0.10021,-0.70304 0.30078,-1.50586 0.20082,-0.8029 0.30273,-1.25518 0.30273,-1.35547 0.10034,-0.20069 0.40058,-0.50093 0.90235,-0.90234 l 1.05273,-1.05469 c 0.70234,-1.40492 0.95448,-3.21022 0.75391,-5.41797 -0.20085,-2.20774 -0.10063,-4.16509 0.30078,-5.87109 0.20072,-0.80282 0.50093,-1.45529 0.90234,-1.95703 0.40129,-0.60213 0.70348,-1.25457 0.9043,-1.95703 v -1.95703 -2.10743 c -0.10036,-0.20071 -0.45258,-0.70108 -1.05469,-1.5039 -0.50177,-0.90306 -0.90207,-1.45543 -1.20312,-1.65625 0,-0.40141 -0.0501,-1.10391 -0.15039,-2.10742 v -3.3125 c 0,-1.20424 -0.0501,-2.30704 -0.15039,-3.31055 v -2.4082 c -0.10029,-0.6021 -0.15039,-1.00436 -0.15039,-1.20508 0.10053,-0.30106 0.0504,-0.8034 -0.15039,-1.50586 -0.2007,-0.50176 -0.50289,-1.00215 -0.9043,-1.50391 -0.30113,-0.60211 -0.50128,-1.20452 -0.60156,-1.80664 -0.20077,-0.40141 -0.35089,-1.25401 -0.45118,-2.55859 -0.10028,-1.30458 -0.15039,-2.10715 -0.15039,-2.40821 -0.20082,-1.40493 -0.20082,-2.96198 0,-4.66796 0.2007,-1.80634 -0.10147,-3.36144 -0.90429,-4.66602 -0.30106,-0.60211 -1.00355,-1.40468 -2.10742,-2.4082 -1.00352,-1.10388 -1.90617,-1.65625 -2.70899,-1.65625 z m -647.87305,0.30078 c -2.3081,0 -4.11534,0.70249 -5.41992,2.10742 -1.20423,1.40493 -2.20695,3.1121 -3.00976,5.11914 -0.70247,1.90669 -1.30488,3.91409 -1.80664,6.02149 -0.40141,2.10739 -0.85176,3.91268 -1.35352,5.41796 0.60211,2.1074 1.20257,4.01472 1.80469,5.72071 0.60211,1.60563 0.90429,3.56298 0.90429,5.87109 0,1.40493 -0.15011,2.65785 -0.45117,3.76172 -0.30105,1.10387 -0.70332,2.15857 -1.20508,3.16211 -0.4014,1.00351 -0.8537,2.00625 -1.35546,3.00976 -0.50176,0.90319 -1.00215,1.95788 -1.50391,3.16211 -0.4014,0.8028 -0.65355,1.80554 -0.75391,3.00977 -0.10036,1.10387 -0.25048,2.00652 -0.45117,2.70898 -0.40141,1.40495 -1.00382,2.6598 -1.80664,3.76368 -0.70246,1.00351 -1.25289,2.30841 -1.6543,3.91406 v 5.7207 5.87109 8.42774 12.64453 c 0.10036,4.61621 0.15039,9.53364 0.15039,14.75195 0.10036,5.21832 0.15039,10.1858 0.15039,14.90235 0.10034,4.61619 0.20043,8.83114 0.30079,12.64453 0.10036,3.71303 0.15039,6.47296 0.15039,8.2793 0.30105,2.60915 1.40385,4.91677 3.31054,6.92382 1.9067,2.00706 4.16624,3.01172 6.77539,3.01172 1.80635,0 3.51156,-0.50232 5.11719,-1.50586 1.60564,-1.00351 2.96058,-2.25838 4.06446,-3.76367 1.20422,-1.60564 2.10687,-3.31085 2.70898,-5.11719 0.70246,-1.90669 1.05469,-3.66391 1.05469,-5.26953 v -63.67187 h 1.05273 c 0.20072,0.20069 0.40087,0.70108 0.60156,1.5039 0.30105,0.8027 0.50316,1.30504 0.60352,1.50586 0,0.10036 0.20015,0.50262 0.60156,1.20508 0.40141,0.60218 0.60156,0.95245 0.60156,1.05274 0,0.20071 0.05,0.653 0.1504,1.35546 0.10033,0.70247 0.20237,1.45499 0.30273,2.25782 0.2007,0.70246 0.35081,1.40496 0.45117,2.10742 0.10036,0.70254 0.15039,1.10284 0.15039,1.20312 0.10037,0.2007 0.25048,0.60295 0.45117,1.20508 0.20072,0.60211 0.40087,1.3046 0.60157,2.10742 0.30104,0.70247 0.55318,1.40496 0.7539,2.10743 0.30105,0.70246 0.50121,1.2048 0.60157,1.50585 1.30457,3.41199 2.70955,6.77237 4.21484,10.08399 1.60563,3.21129 2.8605,6.62365 3.76367,10.23633 0.30106,1.00351 0.45117,2.05823 0.45117,3.16211 0.10036,1.00354 0.15039,2.05628 0.15039,3.16015 0.10037,1.00352 0.25048,2.00625 0.45117,3.00977 0.30106,0.90318 0.75336,1.80778 1.35547,2.71094 0,0.10036 0.10009,0.35054 0.30079,0.75195 0.30104,0.30105 0.55123,0.65328 0.75195,1.05469 0.30107,0.40141 0.55321,0.75168 0.7539,1.05273 0.30106,0.30113 0.45118,0.50128 0.45118,0.60156 0.10033,0.10036 0.20042,0.45259 0.30078,1.05469 0.20071,0.50177 0.40087,1.05415 0.60156,1.65625 0.20072,0.60213 0.40282,1.15255 0.60352,1.6543 0.20071,0.50184 0.30078,0.80401 0.30078,0.9043 0.2007,0.70246 0.70109,2.00736 1.5039,3.91406 0.80282,1.80633 1.70742,3.71169 2.71094,5.71875 1.00352,2.00703 2.05628,3.81428 3.16016,5.41992 1.10387,1.50528 2.10854,2.25781 3.01172,2.25781 h 8.58007 c 0.90317,0 1.75578,-0.30217 2.5586,-0.9043 0.90317,-0.70246 1.6557,-1.50504 2.25781,-2.4082 0.60211,-0.90318 1.10445,-1.85586 1.50586,-2.85937 0.40141,-1.00352 0.60156,-1.85611 0.60156,-2.5586 0,-0.40141 0.05,-1.30406 0.15039,-2.70898 0.10034,-1.40493 0.20042,-2.91194 0.30078,-4.51758 0.10036,-1.70598 0.15039,-3.31112 0.15039,-4.81641 0.10036,-1.60564 0.15039,-2.75847 0.15039,-3.46093 v -6.32227 c 0,-2.91023 -0.35026,-5.77022 -1.05273,-8.58008 -0.60211,-2.91021 -0.9043,-5.87224 -0.9043,-8.88281 0,-1.40493 0.20211,-2.65784 0.60352,-3.76172 0.40141,-1.20423 0.60156,-2.50913 0.60156,-3.91406 v -43.80469 c 0,-1.50528 -0.30218,-2.86022 -0.90429,-4.06445 -0.60212,-1.30457 -1.25262,-2.55749 -1.95508,-3.76172 -0.70247,-1.30457 -1.35492,-2.55944 -1.95703,-3.76367 -0.60212,-1.30459 -0.9043,-2.65953 -0.9043,-4.06446 0,-1.10387 0.10006,-2.20862 0.30078,-3.3125 0.20069,-1.10387 0.30078,-2.20667 0.30078,-3.31054 0,-2.20775 -0.6505,-4.31522 -1.95508,-6.32227 -1.30458,-2.10739 -3.16185,-3.16211 -5.57031,-3.16211 -0.70246,0 -1.35492,0.25215 -1.95703,0.75391 -0.60211,0.50176 -1.10445,1.15421 -1.50586,1.95703 -0.40141,0.70247 -0.75168,1.455 -1.05273,2.25781 -0.30105,0.70247 -0.50121,1.35492 -0.60157,1.95703 -0.2007,0.70247 -0.45285,1.85532 -0.7539,3.46094 -0.30106,1.60565 -0.45117,2.61031 -0.45117,3.01172 0,0.20072 -0.05,0.70111 -0.1504,1.50391 -0.10035,0.80282 -0.20042,1.70739 -0.30078,2.71093 0,1.00352 -0.05,1.95622 -0.15039,2.85938 v 1.35547 c -0.2007,1.40492 -0.55293,2.96001 -1.05469,4.66601 -0.50176,1.60562 -1.00409,3.01061 -1.50585,4.21485 v 18.36328 h -0.90235 c -0.10035,0 -0.30051,-0.25018 -0.60156,-0.75195 -0.20071,-0.50175 -0.50289,-1.10418 -0.9043,-1.80664 -0.40141,-0.80283 -0.80171,-1.60539 -1.20312,-2.40821 -0.30107,-0.80282 -0.55322,-1.45528 -0.75391,-1.95703 -0.60211,-1.40495 -1.1025,-2.91001 -1.50391,-4.51562 -0.30105,-1.60565 -0.65327,-3.21077 -1.05468,-4.81641 -0.40141,-1.60562 -0.85176,-3.16073 -1.35352,-4.66602 -0.40141,-1.60564 -1.05386,-3.06064 -1.95703,-4.36523 -0.10035,-0.20069 -0.40253,-0.65301 -0.9043,-1.35547 -0.50176,-0.80282 -1.05413,-1.60538 -1.65625,-2.4082 -0.60211,-0.90316 -1.15253,-1.70574 -1.65429,-2.40821 -0.50178,-0.80272 -0.854,-1.30504 -1.05469,-1.50586 -0.30106,-0.6021 -0.70136,-1.30459 -1.20313,-2.10742 -0.4014,-0.90318 -0.80367,-1.80583 -1.20507,-2.70898 -0.40141,-1.00352 -0.80367,-1.90811 -1.20508,-2.71094 -0.4014,-0.90317 -0.70163,-1.60566 -0.90235,-2.10742 -0.60211,-1.60564 -1.10444,-3.56104 -1.50585,-5.86914 -0.40141,-2.3081 -0.9018,-4.61768 -1.50391,-6.92578 -0.60211,-2.40846 -1.40468,-4.56597 -2.4082,-6.47266 -0.90318,-1.90669 -2.20808,-3.26163 -3.91407,-4.06445 z m 171.90235,0 c -2.3081,0 -4.11339,0.70249 -5.41797,2.10742 -1.20423,1.40493 -2.2089,3.1121 -3.01172,5.11914 -0.70247,1.90669 -1.30292,3.91409 -1.80469,6.02149 -0.40141,2.10739 -0.85371,3.91268 -1.35547,5.41796 0.60212,2.1074 1.20453,4.01472 1.80664,5.72071 0.60212,1.60563 0.90235,3.56298 0.90235,5.87109 0,1.40493 -0.15012,2.65785 -0.45117,3.76172 -0.30106,1.10387 -0.70332,2.15857 -1.20508,3.16211 -0.40141,1.00351 -0.85176,2.00625 -1.35352,3.00976 -0.50176,0.90319 -1.0041,1.95788 -1.50586,3.16211 -0.4014,0.8028 -0.65159,1.80554 -0.75195,3.00977 -0.10034,1.10387 -0.25045,2.00652 -0.45117,2.70898 -0.40141,1.40495 -1.00383,2.6598 -1.80664,3.76368 -0.70247,1.00351 -1.25484,2.30841 -1.65625,3.91406 v 5.7207 5.87109 8.42774 12.64453 c 0.10036,4.61621 0.15039,9.53364 0.15039,14.75195 0.10036,5.21832 0.15039,10.1858 0.15039,14.90235 0.10033,4.61619 0.20042,8.83114 0.30078,12.64453 0.10036,3.71303 0.15039,6.47296 0.15039,8.2793 0.30106,2.60915 1.40581,4.91677 3.3125,6.92382 1.90669,2.00706 4.16428,3.01172 6.77344,3.01172 1.80634,0 3.51155,-0.50232 5.11719,-1.50586 1.60563,-1.00351 2.96057,-2.25838 4.06445,-3.76367 1.20422,-1.60564 2.10882,-3.31085 2.71094,-5.11719 0.70246,-1.90669 1.05273,-3.66391 1.05273,-5.26953 v -63.67187 h 1.05469 c 0.20071,0.20069 0.40087,0.70108 0.60156,1.5039 0.30105,0.8027 0.5012,1.30504 0.60156,1.50586 0,0.10036 0.20016,0.50262 0.60157,1.20508 0.4014,0.60218 0.60351,0.95245 0.60351,1.05274 0,0.20071 0.05,0.653 0.15039,1.35546 0.10034,0.70247 0.20042,1.45499 0.30078,2.25782 0.2007,0.70246 0.35082,1.40496 0.45117,2.10742 0.10036,0.70254 0.1504,1.10284 0.1504,1.20312 0.10036,0.2007 0.25047,0.60295 0.45117,1.20508 0.20071,0.60211 0.40282,1.3046 0.60351,2.10742 0.30107,0.70247 0.55126,1.40496 0.75196,2.10743 0.30105,0.70246 0.5012,1.2048 0.60156,1.50585 1.30458,3.41199 2.70956,6.77237 4.21484,10.08399 1.60564,3.21129 2.8605,6.62365 3.76367,10.23633 0.30106,1.00351 0.45118,2.05823 0.45118,3.16211 0.10036,1.00354 0.15039,2.05628 0.15039,3.16015 0.10034,1.00352 0.2524,2.00625 0.45312,3.00977 0.30106,0.90318 0.7514,1.80778 1.35352,2.71094 0,0.10036 0.10009,0.35054 0.30078,0.75195 0.30104,0.30105 0.55319,0.65328 0.7539,1.05469 0.30107,0.40141 0.55127,0.75168 0.75196,1.05273 0.30106,0.30113 0.45117,0.50128 0.45117,0.60156 0.10033,0.10036 0.20042,0.45259 0.30078,1.05469 0.20069,0.50177 0.4028,1.05415 0.60352,1.65625 0.20071,0.60213 0.40087,1.15255 0.60156,1.6543 0.20072,0.50184 0.30078,0.80401 0.30078,0.9043 0.2007,0.70246 0.70304,2.00736 1.50586,3.91406 0.80282,1.80633 1.70546,3.71169 2.70898,5.71875 1.00353,2.00703 2.05824,3.81428 3.16211,5.41992 1.10388,1.50528 2.1066,2.25781 3.00977,2.25781 h 8.58008 c 0.90317,0 1.75577,-0.30217 2.55859,-0.9043 0.90317,-0.70246 1.6557,-1.50504 2.25781,-2.4082 0.60212,-0.90318 1.10445,-1.85586 1.50586,-2.85937 0.40141,-1.00352 0.60157,-1.85611 0.60157,-2.5586 0,-0.40141 0.05,-1.30406 0.15039,-2.70898 0.10036,-1.40493 0.20042,-2.91194 0.30078,-4.51758 0.10036,-1.70598 0.15234,-3.31112 0.15234,-4.81641 0.10036,-1.60564 0.15039,-2.75847 0.15039,-3.46093 v -6.32227 c 0,-2.91023 -0.35222,-5.77022 -1.05469,-8.58008 -0.60211,-2.91021 -0.90234,-5.87224 -0.90234,-8.88281 0,-1.40493 0.20015,-2.65784 0.60156,-3.76172 0.40141,-1.20423 0.60157,-2.50913 0.60157,-3.91406 v -43.80469 c 0,-1.50528 -0.30023,-2.86022 -0.90235,-4.06445 -0.60211,-1.30457 -1.25456,-2.55749 -1.95703,-3.76172 -0.70246,-1.30457 -1.35492,-2.55944 -1.95703,-3.76367 -0.60211,-1.30459 -0.90234,-2.65953 -0.90234,-4.06446 0,-1.10387 0.10006,-2.20862 0.30078,-3.3125 0.20069,-1.10387 0.30078,-2.20667 0.30078,-3.31054 0,-2.20775 -0.65246,-4.31522 -1.95703,-6.32227 -1.30458,-2.10739 -3.16186,-3.16211 -5.57032,-3.16211 -0.70246,0 -1.35491,0.25215 -1.95703,0.75391 -0.60211,0.50176 -1.10249,1.15421 -1.5039,1.95703 -0.40141,0.70247 -0.75363,1.455 -1.05469,2.25781 -0.30105,0.70247 -0.5012,1.35492 -0.60156,1.95703 -0.20071,0.70247 -0.4509,1.85532 -0.75196,3.46094 -0.30105,1.60565 -0.45312,2.61031 -0.45312,3.01172 0,0.20072 -0.05,0.70111 -0.15039,1.50391 -0.10034,0.80282 -0.20042,1.70739 -0.30078,2.71093 0,1.00352 -0.05,1.95622 -0.15039,2.85938 v 1.35547 c -0.20071,1.40492 -0.55098,2.96001 -1.05274,4.66601 -0.50176,1.60562 -1.00409,3.01061 -1.50586,4.21485 v 18.36328 h -0.90429 c -0.10036,0 -0.30051,-0.25018 -0.60157,-0.75195 -0.2007,-0.50175 -0.50093,-1.10418 -0.90234,-1.80664 -0.40141,-0.80283 -0.80367,-1.60539 -1.20508,-2.40821 -0.30107,-0.80282 -0.55126,-1.45528 -0.75195,-1.95703 -0.60212,-1.40495 -1.10445,-2.91001 -1.50586,-4.51562 -0.30106,-1.60565 -0.65133,-3.21077 -1.05274,-4.81641 -0.40141,-1.60562 -0.8537,-3.16073 -1.35546,-4.66602 -0.40141,-1.60564 -1.05386,-3.06064 -1.95704,-4.36523 -0.10035,-0.20069 -0.40058,-0.65301 -0.90234,-1.35547 -0.50176,-0.80282 -1.05414,-1.60538 -1.65625,-2.4082 -0.60211,-0.90316 -1.15449,-1.70574 -1.65625,-2.40821 -0.50177,-0.80272 -0.85204,-1.30504 -1.05273,-1.50586 -0.30106,-0.6021 -0.70332,-1.30459 -1.20508,-2.10742 -0.40141,-0.90318 -0.80367,-1.80583 -1.20508,-2.70898 -0.40141,-1.00352 -0.80172,-1.90811 -1.20312,-2.71094 -0.4014,-0.90317 -0.70358,-1.60566 -0.9043,-2.10742 -0.60211,-1.60564 -1.1025,-3.56104 -1.50391,-5.86914 -0.40141,-2.3081 -0.90374,-4.61768 -1.50586,-6.92578 -0.60211,-2.40846 -1.40468,-4.56597 -2.4082,-6.47266 -0.90317,-1.90669 -2.20808,-3.26163 -3.91406,-4.06445 z m -62.91992,0.002 -6.77344,3.46094 -0.60156,1.35547 v 3.31054 3.76368 c 0,1.30458 0.20015,2.5094 0.60156,3.61328 1.40493,1.30458 3.01006,2.85967 4.8164,4.66601 1.80635,1.80634 3.46152,3.76369 4.9668,5.8711 1.60564,2.00703 2.8605,4.11451 3.76367,6.32226 1.00353,2.20775 1.35575,4.4153 1.05469,6.62305 -0.10035,0.90318 -0.40253,1.75577 -0.9043,2.55859 -0.4014,0.70247 -0.85175,1.45499 -1.35351,2.25782 -0.40141,0.70246 -0.80367,1.45499 -1.20508,2.25781 -0.30106,0.80282 -0.45117,1.65544 -0.45117,2.55859 v 2.41016 c 0.10035,0.6021 0.40058,1.40466 0.90234,2.4082 0,4.71655 0.40226,9.3318 1.20508,13.84766 0.90317,4.51585 1.35352,9.13306 1.35352,13.84961 0,6.02114 -0.40031,11.94129 -1.20313,17.76172 -0.70248,5.72008 -1.15478,11.59021 -1.35547,17.61132 -0.10035,0.80283 -0.35054,1.40523 -0.75195,1.80664 -0.30106,0.30106 -0.65328,0.8034 -1.05469,1.50586 -1.30458,2.20778 -2.95975,3.71283 -4.9668,4.51563 -2.00704,0.80282 -4.31466,1.20312 -6.92382,1.20312 -0.50176,0 -1.30433,-0.2502 -2.40821,-0.75195 -1.00352,-0.60213 -2.05823,-1.3046 -3.16211,-2.10742 -1.00352,-0.8028 -1.90616,-1.65541 -2.70898,-2.55859 -0.80282,-0.90319 -1.20508,-1.70575 -1.20508,-2.40821 v -1.50586 c 0.10037,-0.50177 0.25243,-1.05414 0.45313,-1.65625 v -18.51367 c 0,-1.10387 -0.35223,-2.30871 -1.05469,-3.61328 -0.60212,-1.40495 -1.35465,-2.75989 -2.25781,-4.06445 -0.80282,-1.40493 -1.65543,-2.70983 -2.5586,-3.91407 -0.80282,-1.30459 -1.45527,-2.40739 -1.95703,-3.31054 v -0.45313 -0.15039 l 0.45117,-0.45117 c 0.2007,-0.10054 0.30078,-0.2005 0.30078,-0.30078 0.10036,-0.10054 0.20043,-0.2005 0.30079,-0.30078 0.10035,-0.10036 0.50261,-0.40253 1.20507,-0.9043 0.70246,-0.50182 1.10472,-0.80206 1.20508,-0.90234 0.50176,-0.70247 1.05218,-1.55508 1.6543,-2.5586 0.60211,-1.10387 1.20453,-2.25866 1.80664,-3.46289 0.60211,-1.20423 1.10445,-2.35901 1.50586,-3.46289 0.40142,-1.20423 0.70165,-2.257 0.90234,-3.16016 v -2.70898 c 0.10036,-1.30459 0.15039,-2.65953 0.15039,-4.06445 0.10036,-1.50529 0.15039,-2.86022 0.15039,-4.06446 0.10036,-1.30456 0.15235,-2.20721 0.15235,-2.70898 v -0.60352 c 0,-1.90669 -0.15207,-3.41175 -0.45313,-4.51562 -0.30105,-1.10387 -0.95351,-2.50887 -1.95703,-4.21484 -0.50176,-0.70247 -0.95211,-1.30487 -1.35351,-1.80665 -0.40141,-0.50177 -0.60352,-1.15423 -0.60352,-1.95703 0.70247,-1.50528 1.30488,-2.85826 1.80664,-4.0625 0.50176,-1.10387 0.90402,-2.10853 1.20508,-3.01171 0.40142,-0.90306 0.70165,-1.45544 0.90234,-1.65626 0.90317,-1.60564 1.90785,-3.1107 3.01172,-4.51562 1.10388,-1.50529 1.85641,-3.11042 2.25781,-4.81641 v -2.70898 c 0.10036,-1.50529 0.15039,-2.50996 0.15039,-3.01172 v -3.16016 c 0.10037,-1.30458 2.8e-4,-2.55944 -0.30078,-3.76367 -0.2007,-1.20423 -0.653,-2.20695 -1.35547,-3.00976 -0.60211,-0.90317 -1.60483,-1.35547 -3.00976,-1.35547 -1.70599,0 -3.26304,0.65245 -4.66797,1.95703 -1.40493,1.20422 -2.65784,2.35901 -3.76172,3.46289 -0.30106,0.30106 -0.75335,0.80144 -1.35547,1.50391 -0.50176,0.60211 -1.05413,1.25456 -1.65625,1.95703 l -1.80664,2.10742 c -0.50175,0.60212 -0.85201,1.00438 -1.05273,1.20508 -0.50178,0.70246 -0.854,1.45499 -1.05469,2.25781 -0.10036,0.80282 -0.15039,1.60538 -0.15039,2.4082 0,1.00353 0.10204,1.95621 0.30273,2.85938 0.20072,0.80282 0.30078,1.70742 0.30078,2.71094 10e-6,1.10387 -0.35222,2.00652 -1.05468,2.70898 -0.70247,0.60213 -1.50503,1.15451 -2.40821,1.65625 -0.80281,0.50177 -1.55534,1.10222 -2.25781,1.80469 -0.70246,0.70246 -1.05273,1.70712 -1.05273,3.01172 0,1.10387 0.25019,2.15664 0.75195,3.16015 0.60211,0.90318 0.90234,1.90785 0.90234,3.01172 0,0.8028 -0.15011,1.40523 -0.45117,1.80664 -0.2007,0.40141 -0.60101,1.00187 -1.20312,1.80469 v 19.7207 c 0,0.10024 0.05,0.25036 0.15039,0.45117 0.2007,0.2006 0.35081,0.40075 0.45117,0.60157 0.10035,0.20069 0.30051,0.55291 0.60156,1.05468 0.4014,0.40149 0.6516,0.65167 0.75196,0.75196 0.10035,2.00703 0.30245,3.9644 0.60351,5.87109 0.30106,1.80634 0.45117,3.66166 0.45117,5.56836 0,1.30459 -0.20015,2.50941 -0.60156,3.61328 -0.30106,1.00352 -0.45312,2.15833 -0.45312,3.46289 0,1.60565 0.30218,3.1107 0.90429,4.51563 0.70247,1.40495 1.05274,2.96004 1.05274,4.66601 0,1.20424 -0.15012,2.15692 -0.45118,2.85938 -0.2007,0.6021 -0.50093,1.15448 -0.90234,1.65625 -0.30106,0.50177 -0.70331,1.05414 -1.20508,1.65625 -0.50176,0.50177 -0.9521,1.20426 -1.35351,2.10742 0,0.20072 -0.10204,0.60102 -0.30274,1.20312 -0.10034,0.60211 -0.25045,1.25455 -0.45117,1.95704 -0.10033,0.70246 -0.20042,1.40496 -0.30078,2.10742 -0.10033,0.60218 -0.20042,0.9544 -0.30078,1.05469 -0.10035,0.20069 -0.35054,0.75306 -0.75195,1.65625 -0.30107,0.90315 -0.55322,1.50361 -0.75391,1.80468 v 10.53711 c 0.2007,0.30105 0.55292,0.95352 1.05469,1.95703 0.50175,1.00354 0.80198,1.65598 0.90234,1.95704 0.40142,0.90315 0.55153,1.95787 0.45117,3.1621 0,1.10388 0.35222,2.00653 1.05469,2.70899 2.60916,2.60916 5.21702,5.41912 7.82617,8.42969 2.60916,3.01057 5.62123,5.31818 9.0332,6.92382 0.80282,0.50165 1.90562,0.85387 3.31055,1.05469 1.50529,0.10054 3.01034,0.2005 4.51563,0.30078 h 4.66601 c 1.60564,-0.10028 2.91054,-0.15039 3.91407,-0.15039 h 5.87109 c 2.3081,0 4.3155,-0.40225 6.02148,-1.20508 1.9067,-0.90318 3.86405,-2.10604 5.8711,-3.61132 2.10739,-1.60565 4.01276,-3.4129 5.71875,-5.41993 1.80634,-2.00705 3.3114,-4.11451 4.51562,-6.32226 1.20423,-2.20775 1.95676,-4.46533 2.25781,-6.77344 0,-0.10033 0.052,-0.65271 0.15235,-1.65625 0.10036,-1.00351 0.20042,-2.15637 0.30078,-3.46094 0.10033,-1.40495 0.20042,-2.80991 0.30078,-4.21484 0.10036,-1.50529 0.15039,-2.71013 0.15039,-3.61328 v -0.45117 c 0,-2.00703 -0.10006,-3.9644 -0.30078,-5.8711 -0.20069,-1.90669 -0.30078,-3.86404 -0.30078,-5.87109 0,-1.20421 0.05,-2.25698 0.15039,-3.16016 0.20069,-0.90315 0.40084,-1.75772 0.60156,-2.56054 0.30107,-0.80283 0.55126,-1.65542 0.75196,-2.5586 0.20069,-0.90315 0.35276,-1.90589 0.45312,-3.00976 v -4.81641 c 0.10036,-2.20775 0.15039,-4.66746 0.15039,-7.37695 0.10036,-2.80988 0.15039,-5.7199 0.15039,-8.73047 0.10036,-3.11091 0.15039,-6.07098 0.15039,-8.88086 0.10036,-2.80985 0.15039,-5.3196 0.15039,-7.52734 v -4.81641 -7.52539 -7.82813 c 0.10035,-2.80987 -0.25187,-5.41968 -1.05468,-7.82812 -0.80282,-2.50881 -2.15776,-5.21869 -4.06446,-8.12891 -1.80634,-2.91021 -3.96385,-5.56811 -6.47265,-7.97656 -2.40846,-2.50881 -5.06635,-4.56624 -7.97657,-6.17187 -2.91021,-1.70599 -5.82025,-2.5586 -8.73047,-2.5586 z m 137.13085,0.15039 c -1.20422,0 -2.1569,0.2502 -2.85937,0.75195 -0.70247,0.50177 -1.25484,1.15422 -1.65625,1.95704 -0.30104,0.80281 -0.55124,1.70546 -0.75195,2.70898 -0.10036,0.90317 -0.15039,1.75577 -0.15039,2.55859 0,2.1074 0.50038,4.1148 1.5039,6.02149 1.10388,1.90669 2.81104,2.85937 5.11914,2.85937 2.30811,0 4.11339,-0.90264 5.41797,-2.70898 1.30457,-1.90669 1.95703,-3.86405 1.95703,-5.87109 0,-2.30811 -0.90265,-4.26351 -2.70898,-5.86914 -1.70599,-1.60564 -3.66334,-2.40821 -5.8711,-2.40821 z m 281.03711,0.14844 c -1.10387,0 -2.10853,0.50234 -3.01171,1.50586 -0.90316,1.00352 -1.60566,1.85613 -2.10743,2.55859 -0.20069,0.90317 -0.70303,1.80777 -1.50586,2.71094 -0.70246,0.80282 -1.05273,1.65542 -1.05273,2.55859 0,1.50529 0.7025,2.96031 2.10742,4.36524 1.40493,1.40493 2.55971,2.50773 3.46289,3.31055 1.60562,0.50176 3.41092,0.70387 5.41797,0.60351 2.00706,-0.2007 3.71422,0.0995 5.11914,0.90234 0.20069,0 0.4509,0.20016 0.75196,0.60157 0.40148,0.30105 0.65166,0.45312 0.75195,0.45312 0.30105,0.10035 0.95349,0.30051 1.95703,0.60156 1.10387,0.30106 1.8564,0.45118 2.25781,0.45118 0.60218,0.4014 0.95441,0.95378 1.05469,1.65625 0.20082,0.60211 0.30078,1.20452 0.30078,1.80664 v 15.5039 c 0,1.70598 0.30022,3.31112 0.90234,4.81641 0.70247,1.50528 1.05469,3.11236 1.05469,4.81836 0,1.50526 -0.35222,2.80821 -1.05469,3.91211 -0.70241,1.00351 -1.00262,2.35847 -0.90234,4.06445 v 24.08594 1.35351 c 0,0.70247 -0.0501,1.45499 -0.15039,2.25782 0,0.80279 -0.0501,1.55532 -0.15039,2.25781 0,0.70251 -0.0501,1.10479 -0.15039,1.20508 v 0.45117 0.30078 c 0.20057,0.20069 0.30078,0.50289 0.30078,0.9043 0.10028,0.40148 0.15039,0.65167 0.15039,0.75195 v 5.87109 c 0,4.4155 -0.1,8.78057 -0.30078,13.09571 -0.10028,4.2148 -0.15039,8.52981 -0.15039,12.94531 v 0.30078 c 0.20057,0.10036 0.30078,0.50262 0.30078,1.20508 0.10028,0.70254 0.15039,1.10284 0.15039,1.20312 v 0.45313 0.15039 c 0,0.20069 -0.0501,0.55096 -0.15039,1.05273 0,0.50177 -0.0501,1.05415 -0.15039,1.65625 0,0.50177 -0.0501,1.00412 -0.15039,1.50586 v 0.75196 1.65625 c 0.10028,0.80282 0.15039,1.65543 0.15039,2.55859 0.10028,0.90318 0.15039,1.75577 0.15039,2.55859 0.10028,0.80288 0.15039,1.25519 0.15039,1.35547 0,0.30108 0.1,0.75141 0.30078,1.35352 0.30105,0.60213 0.60129,1.25459 0.90235,1.95703 0.30105,0.70251 0.60324,1.40498 0.90429,2.10742 0.30095,0.60211 0.55114,1.05442 0.75196,1.35547 0,0.20079 0.0501,0.35089 0.15039,0.45117 0,0.10054 0.0501,0.2005 0.15039,0.30078 0.60213,0.40141 1.45472,1.05388 2.55859,1.95704 1.10387,0.90325 1.90839,1.40557 2.41016,1.50585 h 2.4082 c 1.60564,0 2.70844,-0.1 3.31055,-0.30078 0.60213,-0.30105 1.45667,-0.75336 2.56054,-1.35547 0.50175,-0.3011 0.95211,-0.45117 1.35352,-0.45117 0.50177,-0.10028 0.90403,-0.2005 1.20508,-0.30078 0.30095,-0.20067 0.55113,-0.4528 0.75195,-0.75391 0.20077,-0.30105 0.35089,-0.90153 0.45117,-1.80468 v -5.57032 -1.65624 c 0.10029,-0.80283 0.15039,-1.55535 0.15039,-2.25782 v -2.10742 c 0.10029,-0.60218 0.15039,-0.95245 0.15039,-1.05273 0.10026,-0.50172 0.25231,-1.00409 0.45313,-1.50586 0.20057,-0.50177 0.30078,-0.95406 0.30078,-1.35547 0.10054,-0.40141 0.2005,-0.75168 0.30078,-1.05274 0,-0.10023 0.0501,-0.25035 0.15039,-0.45117 l 0.30078,-0.60351 v -0.15039 -0.45118 c 0,-0.10033 -0.1,-0.35054 -0.30078,-0.75195 -0.20059,-0.50177 -0.40074,-1.00409 -0.60156,-1.50586 -0.10023,-0.6021 -0.25231,-1.10445 -0.45313,-1.50586 -0.10028,-0.40148 -0.15039,-0.65167 -0.15039,-0.75195 0,-0.20069 -0.0501,-0.65301 -0.15039,-1.35547 v -2.4082 c 0,-0.90316 -0.0501,-1.70572 -0.15039,-2.40821 v -1.35547 c 0,-0.10035 -0.0501,-0.40057 -0.15039,-0.90234 -0.10028,-0.60198 -0.15039,-1.00426 -0.15039,-1.20508 0,-0.10036 -0.0501,-0.35054 -0.15039,-0.75195 v -1.05273 c 0,-3.51237 0.10021,-6.97477 0.30078,-10.38672 0.30105,-3.41196 0.45117,-6.87436 0.45117,-10.38672 V 435.002 c 0,-0.40141 -0.0501,-0.95378 -0.15039,-1.65625 -0.10023,-0.80282 -0.25035,-1.55535 -0.45117,-2.25781 -0.10036,-0.80282 -0.35054,-1.50532 -0.75195,-2.10742 -0.30105,-0.70246 -0.65328,-1.20286 -1.05469,-1.50391 v -2.4082 -2.41016 c 0,-0.6021 0.15207,-1.3046 0.45313,-2.10742 0.20069,-1.00351 0.55096,-1.90616 1.05273,-2.70898 0.6021,-0.90318 0.90234,-1.90589 0.90234,-3.00977 v -0.30273 -2.40821 c 0,-1.20423 -0.0501,-2.45715 -0.15039,-3.76171 0,-1.3046 -0.0501,-2.50941 -0.15039,-3.61329 v -2.55859 c -0.20069,-0.80282 -0.60099,-1.65544 -1.20312,-2.55859 -0.50182,-1.00354 -0.80402,-1.90812 -0.9043,-2.71094 -0.20077,-1.70598 -0.35089,-3.66335 -0.45117,-5.87109 v -6.01954 -0.45312 -1.50391 c 0.10028,-0.80282 0.15039,-1.6054 0.15039,-2.4082 0.10028,-0.80282 0.15039,-1.55535 0.15039,-2.25781 0.10028,-0.80282 0.15039,-1.3552 0.15039,-1.65625 0.10033,-0.30106 0.40253,-0.95351 0.9043,-1.95703 0.602,-1.10388 1.0023,-1.80637 1.20312,-2.10743 0.70247,-1.30457 1.30487,-2.00706 1.80664,-2.10742 0.50175,-0.10035 1.4044,-0.40253 2.70899,-0.90429 1.10387,-0.30106 2.10856,-0.70137 3.01172,-1.20313 0.90318,-0.60211 1.85586,-1.15449 2.85937,-1.65625 0.60213,-0.30106 0.9043,-0.95351 0.9043,-1.95703 0,-1.00352 0.25021,-1.75605 0.75195,-2.25781 l 1.20508,-1.50586 c 0.40141,-0.60212 0.60156,-1.30461 0.60156,-2.10742 0,-1.20423 -0.40225,-2.15691 -1.20508,-2.85938 -0.70246,-0.70247 -1.60511,-1.2048 -2.70898,-1.50586 -1.00352,-0.4014 -2.10827,-0.65159 -3.3125,-0.75195 -1.10387,-0.10036 -2.10661,-0.15039 -3.00977,-0.15039 h -3.91406 c -0.20072,0 -0.65105,0.10009 -1.35351,0.30078 -0.60218,0.10036 -0.95441,0.15039 -1.05469,0.15039 -1.40493,0 -2.85995,-0.05 -4.36524,-0.15039 -1.40495,-0.10037 -2.80991,-0.25048 -4.21484,-0.45117 h -14.90234 c -0.40141,0.10036 -0.8537,0.15039 -1.35547,0.15039 -1.50529,0 -2.91028,-0.15012 -4.21485,-0.45118 -1.20423,-0.4014 -2.50718,-0.60351 -3.91211,-0.60351 z M 40.529297,352.8145 c -1.404931,0 -2.607804,0.60242 -3.611328,1.80664 -1.003522,1.10388 -1.605935,2.30675 -1.806641,3.61133 0.100352,1.9067 0.150391,4.0642 0.150391,6.47266 0,2.40845 -0.150115,4.616 -0.451172,6.62304 -0.200705,0.60212 -0.552926,1.10446 -1.054688,1.50586 -0.401409,0.40141 -0.851754,0.80367 -1.353515,1.20508 -0.501762,0.40141 -0.95406,0.90179 -1.355469,1.50391 -0.401409,0.60211 -0.601563,1.45667 -0.601563,2.56055 V 391.5 c 10e-7,0.10036 -0.302183,0.70277 -0.904296,1.80664 -0.602114,1.10387 -1.154489,1.95649 -1.65625,2.55859 0,0.20072 -0.200154,0.55099 -0.601563,1.05274 -0.301057,0.40149 -0.501211,0.65362 -0.601562,0.75391 -0.100353,0.20071 -0.300506,0.50095 -0.601563,0.90234 -0.200705,0.30113 -0.302734,0.50128 -0.302734,0.60156 -0.903171,1.706 -1.655699,3.36313 -2.257813,4.96875 -0.602113,1.50529 -0.902343,3.26052 -0.902343,5.26758 -10e-7,1.10387 0.05004,2.20863 0.15039,3.3125 0.200706,1.10387 0.300781,2.30674 0.300781,3.61133 0,2.10739 -0.450345,4.31689 -1.353515,6.625 -0.903171,2.3081 -1.605661,4.51566 -2.107422,6.62304 -0.50176,1.50529 -0.853982,3.16046 -1.054688,4.9668 -0.200703,1.70598 -0.400857,3.46122 -0.601562,5.26758 -0.200705,1.70598 -0.502888,3.41316 -0.904297,5.11914 -0.401409,1.706 -0.951831,3.31112 -1.654297,4.81641 -0.702466,1.40492 -1.707139,2.85995 -3.011719,4.36523 -1.304578,1.40493 -2.057107,2.90998 -2.257812,4.51563 -0.3010569,5.11795 -0.9535089,10.0354 -1.9570314,14.75195 C 7.2628451,478.00293 6.8125,482.82029 6.8125,487.83789 v 4.9668 c 0,2.10739 0.2001532,3.8646 0.6015625,5.26953 1.1038748,1.10387 2.3067488,2.35679 3.6113285,3.76172 1.404931,1.40495 3.062057,2.10742 4.96875,2.10742 1.304579,0 2.357338,-0.20015 3.160156,-0.60156 0.802818,-0.40141 1.505308,-0.90373 2.107422,-1.50586 0.602114,-0.70247 1.10445,-1.50505 1.505859,-2.40821 0.501761,-0.90318 1.054137,-1.8058 1.65625,-2.70898 0.200705,-0.20069 0.350821,-0.4509 0.451172,-0.75195 0.100351,-0.30113 0.150391,-0.50324 0.150391,-0.60352 v -15.5039 c 0,-0.30106 0.250191,-0.75334 0.751953,-1.35547 0.501762,-0.70234 0.803945,-1.1527 0.904297,-1.35352 0.401409,-0.80282 0.851754,-1.85752 1.353515,-3.16211 0.501762,-1.30457 1.054137,-2.55748 1.65625,-3.76172 0.602114,-1.30456 1.304604,-2.40932 2.107422,-3.3125 0.802818,-1.00359 1.807492,-1.55596 3.011719,-1.65625 l 17.761719,-0.90234 c 1.204228,0 2.056833,-0.25018 2.558593,-0.75195 0.602114,-0.60213 1.45472,-1.05442 2.558594,-1.35547 1.605637,-0.50175 3.462916,-0.75196 5.570313,-0.75196 2.107399,-0.10028 3.812608,-0.15039 5.117187,-0.15039 1.103874,-0.70246 2.108548,-1.2048 3.011719,-1.50586 1.003522,-0.40141 1.756052,-1.35604 2.257812,-2.86132 v -1.50391 c 0.100359,-0.8028 0.150391,-1.60538 0.150391,-2.4082 0.100359,-0.90318 0.150391,-1.7077 0.150391,-2.41016 0.100359,-0.70246 0.15039,-1.20285 0.15039,-1.50391 0.100364,-0.40141 0.250479,-0.90373 0.451172,-1.50586 0.200706,-0.70246 0.653003,-1.05273 1.355469,-1.05273 0.301067,0 0.55126,0.4003 0.751953,1.20313 0.200706,0.70246 0.502888,1.50502 0.904297,2.4082 0.401408,0.90315 0.951831,1.75577 1.654297,2.55859 0.702465,0.70246 1.6571,1.05469 2.861328,1.05469 1.003522,0 1.706013,-0.45231 2.107422,-1.35547 0.501762,-0.90318 0.751953,-1.85586 0.751953,-2.85937 0,-1.00352 -0.250191,-1.85614 -0.751953,-2.5586 -0.401409,-0.80282 -0.903746,-1.55535 -1.50586,-2.25781 -0.50176,-0.70246 -1.004096,-1.40493 -1.505859,-2.10742 -0.401409,-0.8028 -0.601563,-1.65542 -0.601563,-2.5586 0,-0.80282 0.05003,-1.60733 0.150391,-2.41015 0.100359,-0.80282 0.150391,-1.65544 0.150391,-2.5586 0,-1.10387 -0.100089,-2.10658 -0.300782,-3.00976 -0.200705,-1.00352 -0.703042,-1.85613 -1.505859,-2.5586 -0.903171,-0.80282 -1.50363,-1.40523 -1.804687,-1.80664 -0.301057,-0.40141 -0.903472,-0.60351 -1.806641,-0.60351 h -0.904297 c -0.200705,0.20072 -0.65105,0.653 -1.353516,1.35547 -0.602124,0.70233 -1.004385,1.15465 -1.205078,1.35547 -0.200705,0.20071 -0.500935,0.75309 -0.902343,1.65625 -0.30105,0.90305 -0.503157,1.45347 -0.603516,1.65429 -0.301057,0.50177 -0.701362,0.90403 -1.203125,1.20508 -0.401409,0.20072 -0.853709,0.4509 -1.355469,0.75195 -0.401411,0.2007 -0.851755,0.45283 -1.353515,0.75391 -0.401421,0.30105 -0.703604,0.75141 -0.904297,1.35352 -0.100364,0.10035 -0.250479,0.55264 -0.451172,1.35546 -0.200698,0.70234 -0.350813,1.1527 -0.451172,1.35352 -1.906691,3.01057 -4.566537,4.91788 -7.978516,5.7207 -3.512327,-0.10053 -6.774588,-0.0504 -9.785156,0.15039 -3.010567,0.20082 -6.120759,0.30078 -9.332031,0.30078 h -2.558594 c -0.802818,-0.6021 -1.505308,-1.35463 -2.107422,-2.25781 -0.501761,-1.00351 -0.954059,-2.05628 -1.355468,-3.16015 -0.301056,-1.10388 -0.551248,-2.20863 -0.751954,-3.3125 -0.200705,-1.20424 -0.300781,-2.257 -0.300781,-3.16016 0,-1.20423 0.30023,-2.05682 0.902344,-2.55859 0.602113,-0.60211 1.254565,-1.05442 1.957031,-1.35547 0.802818,-0.30108 1.555347,-0.60129 2.257813,-0.90235 0.802818,-0.30105 1.355193,-0.75336 1.65625,-1.35547 1.70599,-3.01057 2.808787,-6.12074 3.310547,-9.33203 0.602114,-3.31162 0.904296,-6.72401 0.904296,-10.23632 0,-1.70601 -0.200154,-3.31113 -0.601562,-4.81641 -0.301057,-1.50529 -0.453125,-3.06235 -0.453125,-4.66797 0,-0.60213 0.100088,-1.10249 0.300781,-1.50391 0.301057,-0.40141 0.60324,-0.75363 0.904297,-1.05468 l 0.902344,-0.90235 c 0.301044,-0.40141 0.553188,-0.8537 0.753906,-1.35547 0.301049,-1.40492 0.501203,-2.80991 0.601563,-4.21484 0.100359,-1.50528 0.15039,-2.96031 0.15039,-4.36523 0,-1.80634 -0.350269,-3.46152 -1.052734,-4.9668 -0.602114,-1.60564 -0.904297,-3.31281 -0.904297,-5.11914 0,-0.50176 0.05003,-1.15422 0.150391,-1.95703 0.100359,-0.80283 0.15039,-1.30322 0.15039,-1.50391 0,-0.10035 0.100088,-0.65273 0.300781,-1.65625 0.200706,-1.00352 0.45285,-1.50586 0.753907,-1.50586 l 0.15039,0.15039 c 0.100359,0 0.150391,0.10009 0.150391,0.30078 0.100334,0.10036 0.200422,0.15235 0.300781,0.15235 0.100359,0.60211 0.200422,1.40468 0.300781,2.4082 0.100352,1.00352 0.300506,2.05628 0.601563,3.16016 0.301057,1.00352 0.703318,1.90616 1.205078,2.70898 0.501763,0.8027 1.154214,1.30504 1.957031,1.50586 l 5.871094,1.50586 c 1.103874,0.20072 1.95648,-0.25159 2.558594,-1.35547 0.702465,-1.20422 1.052734,-2.20694 1.052734,-3.00976 0,-3.81339 -0.952681,-6.97557 -2.859375,-9.48438 -1.806339,-2.60916 -4.013888,-5.0669 -6.623047,-7.375 -0.100351,0 -0.300505,-0.15011 -0.601562,-0.45117 -0.100359,-0.10034 -0.200422,-0.25241 -0.300781,-0.45313 -0.50176,-0.80281 -1.104176,-1.75549 -1.806641,-2.85937 -0.602114,-1.10388 -1.304605,-1.90644 -2.107422,-2.4082 -0.501763,-0.30106 -1.004099,-0.45118 -1.505859,-0.45118 -0.401411,-0.10036 -0.853709,-0.15039 -1.355469,-0.15039 z m 124.185543,0 c -1.50528,0 -2.508,0.65245 -3.00976,1.95703 -0.50176,1.30458 -0.75196,2.5575 -0.75196,3.76172 0,1.70599 0.20016,2.96086 0.60157,3.76368 0.50176,0.80281 1.30433,1.9576 2.4082,3.46289 h 1.35547 c 1.50528,0 2.65812,-0.80257 3.46094,-2.40821 0.8028,-1.70599 1.10499,-3.21104 0.90429,-4.51562 -0.10035,-1.10388 -0.60269,-2.35874 -1.50586,-3.76367 -0.90317,-1.50529 -2.05796,-2.25782 -3.46289,-2.25782 z m 171.9043,0 c -1.50528,0 -2.50996,0.65245 -3.01172,1.95703 -0.50176,1.30458 -0.75195,2.5575 -0.75195,3.76172 0,1.70599 0.20015,2.96086 0.60156,3.76368 0.50176,0.80281 1.30628,1.9576 2.41016,3.46289 h 1.35351 c 1.50529,0 2.66007,-0.80257 3.46289,-2.40821 0.80283,-1.70599 1.10307,-3.21104 0.90235,-4.51562 -0.10035,-1.10388 -0.60074,-2.35874 -1.50391,-3.76367 -0.90317,-1.50529 -2.05796,-2.25782 -3.46289,-2.25782 z m 241.44727,0 c -1.40493,0 -2.60977,0.60242 -3.61329,1.80664 -1.00341,1.10388 -1.60386,2.30675 -1.80468,3.61133 0.10028,1.9067 0.15039,4.0642 0.15039,6.47266 0,2.40845 -0.15205,4.616 -0.45313,6.62304 -0.20069,0.60212 -0.55096,1.10446 -1.05273,1.50586 -0.40141,0.40141 -0.85373,0.80367 -1.35547,1.20508 -0.50177,0.40141 -0.9521,0.90179 -1.35352,1.50391 -0.40141,0.60211 -0.60351,1.45667 -0.60351,2.56055 V 391.5 c 0,0.10036 -0.30024,0.70277 -0.90235,1.80664 -0.60212,1.10387 -1.1545,1.95649 -1.65624,2.55859 0,0.20072 -0.20016,0.55099 -0.60157,1.05274 -0.30113,0.40149 -0.50128,0.65362 -0.60156,0.75391 -0.10036,0.20071 -0.30246,0.50095 -0.60352,0.90234 -0.20081,0.30113 -0.30078,0.50128 -0.30078,0.60156 -0.90318,1.706 -1.65571,3.36313 -2.25781,4.96875 -0.60213,1.50529 -0.90234,3.26052 -0.90234,5.26758 0,1.10387 0.0501,2.20863 0.15039,3.3125 0.20056,1.10387 0.30078,2.30674 0.30078,3.61133 0,2.10739 -0.45231,4.31689 -1.35547,6.625 -0.90318,2.3081 -1.60568,4.51566 -2.10742,6.62304 -0.50167,1.50529 -0.85192,3.16046 -1.05274,4.9668 -0.20056,1.70598 -0.40269,3.46122 -0.60351,5.26758 -0.20072,1.70598 -0.50093,3.41316 -0.90235,5.11914 -0.40141,1.706 -0.95378,3.31112 -1.65625,4.81641 -0.70246,1.40492 -1.70519,2.85995 -3.00976,4.36523 -1.30447,1.40493 -2.05699,2.90998 -2.25781,4.51563 -0.30108,5.11795 -0.95352,10.0354 -1.95704,14.75195 -0.90315,4.61621 -1.35546,9.43357 -1.35546,14.45117 v 4.9668 c 0,2.10739 0.20017,3.8646 0.60156,5.26953 h 0.002 c 1.10388,1.10387 2.30869,2.35679 3.61328,3.76172 1.40493,1.40495 3.0601,2.10742 4.9668,2.10742 1.30459,0 2.35736,-0.20015 3.16016,-0.60156 0.80282,-0.40141 1.50529,-0.90373 2.10742,-1.50586 0.6021,-0.70247 1.10445,-1.50505 1.50586,-2.40821 0.50177,-0.90318 1.05414,-1.8058 1.65625,-2.70898 0.20077,-0.20069 0.35089,-0.4509 0.45117,-0.75195 0.10028,-0.30113 0.15039,-0.50324 0.15039,-0.60352 v -15.5039 c 0,-0.30106 0.25214,-0.75334 0.75391,-1.35547 0.50182,-0.70234 0.80206,-1.1527 0.90234,-1.35352 0.40141,-0.80282 0.85372,-1.85752 1.35547,-3.16211 0.50177,-1.30457 1.05217,-2.55748 1.6543,-3.76172 0.6021,-1.30456 1.3046,-2.40932 2.10742,-3.3125 0.80282,-1.00359 1.80751,-1.55596 3.01172,-1.65625 l 17.76172,-0.90234 c 1.20423,0 2.05682,-0.25018 2.55859,-0.75195 0.6021,-0.60213 1.45472,-1.05442 2.55859,-1.35547 1.60565,-0.50175 3.46293,-0.75196 5.57032,-0.75196 2.10741,-0.10028 3.81262,-0.15039 5.11718,-0.15039 1.10388,-0.70246 2.10854,-1.2048 3.01172,-1.50586 1.00352,-0.40141 1.75604,-1.35604 2.25781,-2.86132 v -1.50391 c 0.10029,-0.8028 0.15039,-1.60538 0.15039,-2.4082 0.10029,-0.90318 0.1504,-1.7077 0.1504,-2.41016 0.10028,-0.70246 0.15039,-1.20285 0.15039,-1.50391 0.10023,-0.40141 0.25035,-0.90373 0.45117,-1.50586 0.20072,-0.70246 0.653,-1.05273 1.35547,-1.05273 0.30092,0 0.55113,0.4003 0.75195,1.20313 0.20072,0.70246 0.50289,1.50502 0.9043,2.4082 0.40141,0.90315 0.95183,1.75577 1.65429,2.55859 0.70247,0.70246 1.6571,1.05469 2.86133,1.05469 1.00352,0 1.70601,-0.45231 2.10742,-1.35547 0.50175,-0.90318 0.75196,-1.85586 0.75196,-2.85937 0,-1.00352 -0.25021,-1.85614 -0.75196,-2.5586 -0.40141,-0.80282 -0.90375,-1.55535 -1.50586,-2.25781 -0.50177,-0.70246 -1.00409,-1.40493 -1.50586,-2.10742 -0.40141,-0.8028 -0.60156,-1.65542 -0.60156,-2.5586 0,-0.80282 0.0501,-1.60733 0.15039,-2.41015 0.10029,-0.80282 0.15039,-1.65544 0.15039,-2.5586 0,-1.10387 -0.1,-2.10658 -0.30078,-3.00976 -0.20069,-1.00352 -0.70304,-1.85613 -1.50586,-2.5586 -0.90318,-0.80282 -1.50559,-1.40523 -1.80664,-1.80664 -0.30105,-0.40141 -0.90346,-0.60351 -1.80664,-0.60351 h -0.90234 c -0.2007,0.20072 -0.65301,0.653 -1.35547,1.35547 -0.602,0.70233 -1.00231,1.15465 -1.20313,1.35547 -0.20071,0.20071 -0.50288,0.75309 -0.90429,1.65625 -0.30113,0.90305 -0.50128,1.45347 -0.60157,1.65429 -0.30105,0.50177 -0.70138,0.90403 -1.20312,1.20508 -0.40141,0.20072 -0.8537,0.4509 -1.35547,0.75195 -0.40141,0.2007 -0.8537,0.45283 -1.35547,0.75391 -0.40128,0.30105 -0.70152,0.75141 -0.90234,1.35352 -0.10049,0.10035 -0.25061,0.55264 -0.45117,1.35546 -0.20077,0.70234 -0.35285,1.1527 -0.45313,1.35352 -1.90669,3.01057 -4.56458,4.91788 -7.97656,5.7207 -3.51234,-0.10053 -6.77459,-0.0504 -9.78516,0.15039 -3.01054,0.20082 -6.12074,0.30078 -9.33203,0.30078 h -2.55859 c -0.80282,-0.6021 -1.50532,-1.35463 -2.10742,-2.25781 -0.50177,-1.00351 -0.95406,-2.05628 -1.35547,-3.16015 -0.30095,-1.10388 -0.55114,-2.20863 -0.75196,-3.3125 -0.20056,-1.20424 -0.30078,-2.257 -0.30078,-3.16016 0,-1.20423 0.30024,-2.05682 0.90235,-2.55859 0.60213,-0.60211 1.25456,-1.05442 1.95703,-1.35547 0.80282,-0.30108 1.55535,-0.60129 2.25781,-0.90235 0.80282,-0.30105 1.3552,-0.75336 1.65625,-1.35547 1.70598,-3.01057 2.80878,-6.12074 3.31055,-9.33203 0.6021,-3.31162 0.90429,-6.72401 0.90429,-10.23632 0,-1.70601 -0.2021,-3.31113 -0.60351,-4.81641 -0.30105,-1.50529 -0.45117,-3.06235 -0.45117,-4.66797 0,-0.60213 0.1,-1.10249 0.30078,-1.50391 0.30105,-0.40141 0.60324,-0.75363 0.90429,-1.05468 l 0.90235,-0.90235 c 0.30095,-0.40141 0.55309,-0.8537 0.7539,-1.35547 0.30113,-1.40492 0.50128,-2.80991 0.60157,-4.21484 0.10028,-1.50528 0.15039,-2.96031 0.15039,-4.36523 0,-1.80634 -0.35223,-3.46152 -1.05469,-4.9668 -0.60213,-1.60564 -0.90234,-3.31281 -0.90234,-5.11914 0,-0.50176 0.0501,-1.15422 0.15039,-1.95703 0.10028,-0.80283 0.15039,-1.30322 0.15039,-1.50391 0,-0.10035 0.1,-0.65273 0.30078,-1.65625 0.20072,-1.00352 0.45285,-1.50586 0.7539,-1.50586 l 0.1504,0.15039 c 0.10028,0 0.15039,0.10009 0.15039,0.30078 0.10053,0.10036 0.20049,0.15235 0.30078,0.15235 0.10028,0.60211 0.2005,1.40468 0.30078,2.4082 0.10036,1.00352 0.30051,2.05628 0.60156,3.16016 0.30105,1.00352 0.70331,1.90616 1.20508,2.70898 0.50174,0.8027 1.15421,1.30504 1.95703,1.50586 l 5.86914,1.50586 c 1.10388,0.20072 1.95844,-0.25159 2.56055,-1.35547 0.70246,-1.20422 1.05273,-2.20694 1.05273,-3.00976 0,-3.81339 -0.95268,-6.97557 -2.85937,-9.48438 -1.80634,-2.60916 -4.01389,-5.0669 -6.62305,-7.375 -0.10033,0 -0.30244,-0.15011 -0.60352,-0.45117 -0.10028,-0.10034 -0.20049,-0.25241 -0.30078,-0.45313 -0.50177,-0.80281 -1.10222,-1.75549 -1.80468,-2.85937 -0.60211,-1.10388 -1.3046,-1.90644 -2.10743,-2.4082 -0.50177,-0.30106 -1.00411,-0.45118 -1.50585,-0.45118 -0.40142,-0.10036 -0.8537,-0.15039 -1.35547,-0.15039 z m -65.39453,0.13867 c -0.42023,-0.005 -0.85003,-8.2e-4 -1.28907,0.0117 -1.706,0 -3.06094,0.35027 -4.06445,1.05274 -1.00352,0.60211 -2.15635,1.40468 -3.46094,2.4082 -1.20423,0.80282 -2.0588,1.65738 -2.56054,2.56055 -0.40142,0.90317 -0.60157,1.90589 -0.60157,3.00976 0,1.00353 0.0501,2.10828 0.15039,3.3125 0.10054,1.20423 0.0504,2.55722 -0.15039,4.0625 -0.10036,1.20423 -0.4006,2.71124 -0.90234,4.51758 -0.50177,1.70599 -1.10418,3.46125 -1.80664,5.26758 -0.70246,1.80634 -1.45499,3.56353 -2.25781,5.26953 -0.70247,1.60565 -1.30487,2.95863 -1.80664,4.0625 -0.2007,0.40139 -0.45088,1.00382 -0.75196,1.80664 -0.30105,0.80282 -0.60324,1.65541 -0.9043,2.5586 -0.30105,0.80282 -0.60129,1.5573 -0.90234,2.25976 -0.20079,0.70254 -0.35089,1.10284 -0.45117,1.20313 -0.50175,1.70597 -0.75391,3.41121 -0.75391,5.11718 0.10029,1.60565 0.10029,3.21272 0,4.81836 0,1.60562 -0.25018,3.16073 -0.75195,4.66602 -0.40141,1.50528 -1.25403,2.96028 -2.55859,4.36523 0,0.30106 -0.0501,0.8034 -0.15039,1.50586 0,0.70247 -0.0501,1.50505 -0.15039,2.40821 0,0.80282 -0.0501,1.60538 -0.1504,2.4082 -0.10028,0.70246 -0.15039,1.20481 -0.15039,1.50586 0,0.20072 -0.10191,0.55096 -0.30273,1.05273 -0.20082,0.40146 -0.30078,0.65167 -0.30078,0.75196 -0.10054,0.10028 -0.2005,0.15039 -0.30078,0.15039 -0.50175,0.10036 -0.95406,-0.14983 -1.35547,-0.75196 -0.40131,-0.70246 -0.70153,-1.30489 -0.90235,-1.80664 -0.10033,-0.30107 -0.35054,-1.0536 -0.75195,-2.25781 -0.40141,-1.30459 -0.8537,-2.70956 -1.35547,-4.21484 -0.50174,-1.50529 -0.95406,-2.86022 -1.35547,-4.06446 -0.40148,-1.30456 -0.65167,-2.10715 -0.75195,-2.4082 -0.40141,-1.40493 -1.10391,-2.60779 -2.10742,-3.61133 -0.90318,-1.00351 -1.35547,-2.20835 -1.35547,-3.61328 0,-1.10387 0.0501,-2.10854 0.15039,-3.01172 0.20082,-1.00351 0.30274,-2.00625 0.30274,-3.00976 v -0.30079 c -0.10034,-0.30105 -0.30247,-0.85342 -0.60352,-1.65624 -0.30108,-0.90319 -0.65132,-1.85587 -1.05274,-2.85938 -0.30105,-1.00351 -0.65327,-1.90812 -1.05468,-2.71094 -0.30113,-0.90318 -0.50128,-1.55369 -0.60156,-1.95508 0,-0.20071 -0.30024,-0.80312 -0.90235,-1.80664 -0.602,-1.10377 -1.00426,-1.75621 -1.20508,-1.95703 -0.10023,-0.30105 -0.25035,-0.65327 -0.45117,-1.05469 -0.20082,-0.50164 -0.30078,-0.85191 -0.30078,-1.05273 l -0.30273,-14.60156 c 0,-1.10388 -0.40031,-2.3087 -1.20313,-3.61328 -0.70246,-1.30458 -1.60706,-2.50746 -2.71094,-3.61133 -1.00351,-1.20423 -2.15634,-2.15886 -3.46093,-2.86133 -1.20421,-0.70246 -2.30896,-1.05273 -3.3125,-1.05273 -2.10739,0.10035 -3.71254,0.70276 -4.81641,1.80664 -1.10387,1.10387 -1.8564,2.75904 -2.25781,4.96679 0.10023,2.60916 0.25035,5.0669 0.45117,7.375 0.20072,2.30811 0.85316,4.61768 1.95703,6.92579 0.30105,0.70246 0.85343,1.50503 1.65625,2.4082 0.8028,0.90318 1.20312,1.75577 1.20312,2.55859 0,0.80287 -0.2502,1.25519 -0.75195,1.35547 -0.20072,-0.20069 -0.75309,-0.50289 -1.65625,-0.9043 -0.80282,-0.40148 -1.35324,-0.65167 -1.6543,-0.75195 h -0.30273 -0.30078 c 0,-0.10028 -0.0501,-0.15039 -0.15039,-0.15039 -1.10388,0 -1.80637,0.65244 -2.10742,1.95703 -0.30111,1.30457 -0.40107,2.35734 -0.30078,3.16016 0,1.30459 0.20015,2.55946 0.60156,3.76367 0.50184,1.20423 0.80401,2.50914 0.9043,3.91406 0,1.00354 -0.50232,1.90616 -1.50586,2.70899 -0.90316,0.70246 -1.90785,1.45501 -3.01172,2.25781 -1.10388,0.80282 -2.10659,1.7555 -3.00977,2.85937 -0.90315,1.10388 -1.35547,2.50884 -1.35547,4.21485 0,1.20423 0.20211,2.40907 0.60352,3.61328 0.40138,1.20423 0.80171,2.35902 1.20312,3.46289 0.50177,1.10387 0.90403,2.2567 1.20508,3.46094 0.40141,1.20423 0.60156,2.40907 0.60156,3.61328 0,1.10387 -0.15012,2.15661 -0.45117,3.16015 -0.30105,0.90316 -0.70331,1.85779 -1.20508,2.86133 -0.40141,0.90316 -0.75168,1.90589 -1.05273,3.00977 -0.30105,1.00354 -0.45117,2.20835 -0.45117,3.61328 0.10036,2.5088 0.50066,4.86647 1.20312,7.07422 0.80287,2.20775 1.25519,4.6174 1.35547,7.22656 0,1.706 -0.0501,3.21106 -0.15039,4.51563 -0.10036,1.20423 -0.70277,2.50913 -1.80664,3.91406 l 0.75195,35.82422 c 0.10026,0.30105 0.25231,0.65327 0.45313,1.05468 0.30105,0.60211 0.65132,1.10445 1.05273,1.50586 0.60211,1.10388 1.10445,2.05656 1.50586,2.85938 0.50177,0.80282 1.00216,1.50532 1.50391,2.10742 0.60213,0.50177 1.3046,0.90207 2.10742,1.20313 0.8028,0.20081 1.85752,0.30273 3.16211,0.30273 1.60564,0 2.96058,-0.50232 4.06445,-1.50586 1.20421,-1.10387 2.15691,-2.35875 2.85938,-3.76367 0.80282,-1.50529 1.3552,-3.06037 1.65625,-4.66602 0.30107,-1.70597 0.45117,-3.21103 0.45117,-4.51562 0,-1.50526 -0.1501,-3.06037 -0.45117,-4.66602 -0.2007,-1.60564 -0.60298,-3.1107 -1.20508,-4.51562 l -0.30078,-13.09766 1.65625,-4.51562 -0.60156,-25.28711 c 1.706,0.90315 2.95889,2.2061 3.76171,3.91211 0.90316,1.70597 1.55562,3.66334 1.95704,5.87109 0.50164,2.10741 0.85386,4.365 1.05468,6.77344 0.20072,2.40846 0.55099,4.76809 1.05274,7.07617 0.50177,2.20777 1.20426,4.26325 2.10742,6.16992 0.90318,1.80636 2.30815,3.26331 4.21484,4.36719 0.30106,0.20069 0.85343,0.50093 1.65625,0.90234 0.90318,0.40141 1.85586,0.8537 2.85938,1.35547 1.00351,0.40139 1.95815,0.80172 2.86133,1.20313 0.90315,0.40148 1.55562,0.65167 1.95703,0.75195 h 0.60156 c 2.00706,0 3.86433,-0.85262 5.57031,-2.55859 1.70601,-1.70601 3.16103,-3.71338 4.36524,-6.02149 1.30459,-2.40844 2.35733,-4.81614 3.16015,-7.22461 0.90316,-2.40844 1.55562,-4.36581 1.95703,-5.87109 0.10029,-0.40141 0.1504,-1.15394 0.1504,-2.25781 0,-1.20424 0.0501,-2.4071 0.15039,-3.61133 0.10023,-1.30457 0.25035,-2.40932 0.45117,-3.3125 0.30105,-1.00352 0.75336,-1.50586 1.35547,-1.50586 0.50189,0 0.85216,0.40225 1.05273,1.20508 0.30113,0.70246 0.50323,1.2048 0.60352,1.50586 0,5.31867 0.20015,10.28615 0.60156,14.90234 0.40131,4.51585 0.70152,9.33123 0.90234,14.44922 0,3.01054 -0.25018,6.07266 -0.75195,9.18359 -0.40134,3.01057 -0.55146,6.07071 -0.45117,9.18164 0,2.30808 0.25216,4.21542 0.7539,5.72071 0.60213,1.50528 1.40469,2.75817 2.40821,3.76171 1.10387,0.90316 2.40877,1.65569 3.91406,2.25782 1.60564,0.50174 3.46097,0.95405 5.56836,1.35547 h 0.75391 c 2.00702,-0.10036 3.6622,-0.80286 4.96679,-2.10743 1.30457,-1.40492 2.40932,-2.90998 3.3125,-4.51562 0,-0.30105 0.0501,-0.85343 0.15039,-1.65625 0.10029,-0.90318 0.15039,-1.85586 0.15039,-2.85938 0.10029,-1.00351 0.15039,-1.90616 0.15039,-2.70898 0.10029,-0.90318 0.15039,-1.55565 0.15039,-1.95703 0,-0.10036 -0.0501,-0.40253 -0.15039,-0.9043 -0.10028,-0.6021 -0.20049,-1.20451 -0.30078,-1.80664 -0.10053,-0.70246 -0.20245,-1.35297 -0.30273,-1.95508 -0.10029,-0.602 -0.15039,-1.00426 -0.15039,-1.20508 v -1.20507 c -0.10034,-1.60562 0.30192,-3.06065 1.20508,-4.36524 0.90318,-1.40492 1.35351,-2.80992 1.35351,-4.21484 0,-1.20423 -0.25018,-2.35707 -0.75195,-3.46094 -0.50175,-1.10387 -1.05412,-2.20863 -1.65625,-3.3125 -0.60211,-1.10387 -1.20256,-2.15662 -1.80469,-3.16016 -0.50182,-1.10387 -0.80401,-2.25868 -0.9043,-3.46289 -0.20059,-4.2148 -0.40074,-8.42972 -0.60156,-12.64453 -0.20077,-4.21478 -0.35089,-8.32964 -0.45117,-12.34375 0,-1.40492 0.0501,-2.30757 0.15039,-2.70898 0.10023,-0.40146 0.25035,-0.65167 0.45117,-0.75195 0.30105,-0.10054 0.60129,-0.2005 0.90235,-0.30079 0.30105,-0.10036 0.65327,-0.50261 1.05468,-1.20507 0.20082,-0.40142 0.30078,-1.05388 0.30078,-1.95704 0.10029,-1.00351 0.1504,-1.95619 0.1504,-2.85937 v -2.86133 -1.80469 c -10e-6,-1.80633 -0.20016,-3.46346 -0.60157,-4.96875 -0.30107,-1.60562 -0.6533,-3.16073 -1.05469,-4.66601 -0.30107,-1.50529 -0.65132,-2.96029 -1.05273,-4.36524 -0.30105,-1.50528 -0.45312,-3.06039 -0.45312,-4.66601 0,-0.20072 -0.0501,-0.60298 -0.15039,-1.20508 v -1.35352 c 1.40492,-0.90315 2.55973,-2.10799 3.46289,-3.61328 0.9031,-1.60564 1.30536,-3.16073 1.20507,-4.66601 0,-0.30105 -0.0501,-0.75337 -0.15039,-1.35547 -0.10033,-0.60213 -0.30244,-1.20454 -0.60351,-1.80664 -0.2007,-0.60213 -0.50094,-1.10252 -0.90235,-1.50391 -0.30105,-0.50177 -0.7033,-0.7539 -1.20507,-0.7539 l -7.22461,0.15039 c -0.10029,0 -0.2005,-0.0501 -0.30079,-0.15039 -0.20081,-0.20077 -0.30078,-0.35089 -0.30078,-0.45118 -0.20069,-0.40141 -0.60295,-0.95378 -1.20507,-1.65625 -0.50175,-0.80282 -0.75196,-1.45526 -0.75196,-1.95703 0,-0.50174 0.25021,-0.75195 0.75196,-0.75195 0.50177,-0.10028 0.90402,-0.15039 1.20507,-0.15039 1.10388,0 2.15662,0.30024 3.16016,0.90234 1.00351,0.60213 2.15832,0.9043 3.46289,0.9043 1.40495,0 2.55778,-0.80256 3.46094,-2.4082 0.90318,-1.60564 1.35547,-3.06066 1.35547,-4.36524 l -0.30078,-10.99023 c 0,-0.10035 -0.15012,-0.45062 -0.45118,-1.05274 -0.30095,-0.60211 -0.55308,-1.05441 -0.7539,-1.35547 -2.00703,-3.11092 -4.16455,-5.16835 -6.47266,-6.17187 -2.01959,-0.87809 -4.49984,-1.33231 -7.4414,-1.36524 z m -94.91797,1.66797 c -0.90316,0.40141 -1.55562,1.15394 -1.95703,2.25782 -0.40132,1.00352 -0.70153,2.15635 -0.90235,3.46093 -0.20077,1.30458 -0.35284,2.60949 -0.45312,3.91407 0,1.30458 -0.0501,2.35929 -0.15039,3.16211 -1.1039,2.10739 -2.25673,4.41502 -3.46094,6.92382 -1.10388,2.40846 -2.15857,4.91625 -3.16211,7.52539 -0.90316,2.50883 -1.65568,5.11864 -2.25781,7.82813 -0.60211,2.70952 -0.90235,5.31932 -0.90235,7.82812 0,1.20424 0.1,2.20695 0.30078,3.00977 0.30106,0.80282 0.45118,1.85754 0.45118,3.16211 0,0.60213 -0.20016,1.3046 -0.60157,2.10742 -0.40141,0.70246 -0.90373,1.40496 -1.50586,2.10742 -0.6021,0.70247 -1.3046,1.30295 -2.10742,1.80469 -0.70246,0.40141 -1.40496,0.60352 -2.10742,0.60352 -0.6021,0 -1.20451,-0.20211 -1.80664,-0.60352 -0.6021,-0.40139 -1.05246,-0.80171 -1.35352,-1.20312 0,-0.50177 -0.1,-1.30433 -0.30078,-2.40821 -0.10023,-1.20423 -0.2523,-2.40905 -0.45312,-3.61328 -0.10054,-1.30457 -0.2005,-2.50941 -0.30078,-3.61328 -0.10054,-1.20423 -0.2005,-2.00679 -0.30078,-2.4082 -0.2007,-1.40493 -0.95323,-2.6598 -2.25782,-3.76368 -1.20423,-1.10387 -2.50913,-1.65429 -3.91406,-1.65429 -0.90316,0 -1.90589,0.45033 -3.00977,1.35351 -1.00354,0.8028 -1.95817,1.75746 -2.86132,2.86133 -0.90318,1.10388 -1.65571,2.25671 -2.25782,3.46094 -0.60213,1.20423 -0.90234,2.15886 -0.90234,2.86133 v 13.39648 c 0.90318,1.80634 1.50559,3.66362 1.80664,5.57031 0.40141,1.9067 0.75364,3.86209 1.05469,5.86915 0.30105,1.90667 0.65132,3.814 1.05273,5.7207 0.40141,1.90669 1.10388,3.71196 2.10742,5.41797 0.2007,0.50174 0.50094,1.10417 0.90235,1.80664 0.50177,0.70246 0.95406,1.40493 1.35547,2.10742 0.40138,0.8028 0.8537,1.65737 1.35547,2.56055 v 47.11523 c 0,1.40495 0.35027,2.85995 1.05273,4.36523 0.70246,1.50529 1.60511,2.86025 2.70898,4.06446 1.10388,1.20423 2.35873,2.20694 3.76368,3.00976 1.40492,0.80283 2.80991,1.20508 4.21484,1.20508 2.10739,0 3.81455,-0.50234 5.11914,-1.50586 1.40493,-1.00354 2.45769,-2.25838 3.16016,-3.76367 0.80282,-1.60562 1.35519,-3.36088 1.65625,-5.26758 0.30105,-1.90669 0.45117,-3.71392 0.45117,-5.41992 v -1.65625 -3.76367 c 0.10028,-1.40493 0.15039,-2.80797 0.15039,-4.21289 v -3.61328 -2.5586 c 0,-1.30459 -0.0501,-2.65952 -0.15039,-4.06445 v -4.06445 -2.70899 c -0.20069,-0.90315 -0.50093,-1.85779 -0.90235,-2.86133 -0.30105,-1.00351 -0.45312,-2.00625 -0.45312,-3.00976 0,-2.80988 0.35222,-5.51975 1.05469,-8.12891 0.70246,-2.60916 1.05273,-5.41911 1.05273,-8.42969 1.20423,-1.70597 2.05878,-3.21105 2.56055,-4.51562 0.50164,-1.40495 0.85191,-2.70985 1.05273,-3.91406 0.30113,-1.30459 0.50128,-2.6095 0.60157,-3.91406 0.10033,-1.40496 0.40252,-3.01007 0.90429,-4.81641 0.50177,-1.40493 1.35439,-2.70983 2.5586,-3.91406 1.20423,-1.30457 1.95676,-2.65951 2.25781,-4.06446 0,-0.10033 0.0501,-0.35054 0.15039,-0.75195 0.10028,-0.40141 0.15039,-0.8537 0.15039,-1.35547 0.10054,-0.6021 0.2005,-1.10249 0.30078,-1.50391 0.10028,-0.50164 0.15039,-0.85386 0.15039,-1.05468 0,-0.20072 0.15207,-0.80313 0.45313,-1.80664 0.40131,-1.10388 0.70152,-1.80637 0.90234,-2.10742 v -2.70899 c 0.10028,-1.30459 0.15039,-2.70956 0.15039,-4.21484 0.10028,-1.50529 0.15039,-2.91028 0.15039,-4.21485 0.10029,-1.30459 0.15039,-2.20724 0.15039,-2.70898 0.10054,-0.30105 0.2005,-0.95349 0.30078,-1.95703 0.20077,-1.10388 0.35089,-2.25866 0.45118,-3.46289 0.20079,-1.20421 0.35284,-2.30701 0.45312,-3.31055 0.10028,-1.10375 0.15039,-1.75621 0.15039,-1.95703 v -0.30078 c 0,-1.20421 -0.15012,-2.45908 -0.45117,-3.76367 -0.20082,-1.30458 -0.30273,-2.55945 -0.30274,-3.76368 0,-2.00704 0.35223,-3.76229 1.05469,-5.26757 0.80282,-1.50529 1.20313,-3.26249 1.20313,-5.26954 v -1.65625 c 0,-0.90317 -0.0501,-1.50558 -0.15039,-1.80664 -0.40141,-1.70598 -1.254,-2.80878 -2.5586,-3.31054 -1.30456,-0.50176 -2.65952,-0.75196 -4.06445,-0.75196 z m -354.945316,6.32227 c -0.602112,0 -1.104449,0.10009 -1.50586,0.30078 -0.301054,0.20071 -0.651323,0.75113 -1.052734,1.6543 v 1.95703 c 0,1.00352 0.150115,2.05823 0.451172,3.16211 0.401408,1.00352 1.203975,1.50586 2.408203,1.50586 1.204228,0 2.006795,-0.50234 2.408203,-1.50586 0.50176,-1.00352 0.751953,-2.0082 0.751953,-3.01172 0,-1.10388 -0.300232,-2.05656 -0.902343,-2.85938 -0.602115,-0.80282 -1.454718,-1.20312 -2.558594,-1.20312 z m 537.535156,0 c -0.6021,0 -1.1025,0.10009 -1.50391,0.30078 -0.30105,0.20071 -0.65327,0.75113 -1.05468,1.6543 v 1.95703 c 0,1.00352 0.15012,2.05823 0.45117,3.16211 0.40141,1.00352 1.20397,1.50586 2.4082,1.50586 1.20421,0 2.00875,-0.50234 2.41016,-1.50586 0.50177,-1.00352 0.75195,-2.0082 0.75195,-3.01172 0,-1.10388 -0.30024,-2.05656 -0.90234,-2.85938 -0.60213,-0.80282 -1.45668,-1.20312 -2.56055,-1.20312 z m -221.125,14.14844 c -0.20069,0 -0.45285,0.10009 -0.75391,0.30078 -0.30105,0.2007 -0.45117,0.50289 -0.45117,0.9043 0,0.4014 0.0501,0.80171 0.15039,1.20312 0.20072,0.40139 0.55295,0.60352 1.05469,0.60352 z M 60.701172,382.4688 c -1.705988,0 -3.211046,0.55042 -4.515625,1.6543 -1.30458,1.10387 -2.209178,2.45881 -2.710938,4.06445 v 5.11914 3.76172 c 0,1.20423 0.202107,2.50914 0.603516,3.91406 0.200716,1.10388 0.40087,1.80637 0.601563,2.10742 0.301049,0.20072 0.501203,0.80313 0.601562,1.80664 0,0.20072 0.05003,0.7531 0.150391,1.65625 0.100333,0.90319 0.200422,1.85586 0.300781,2.85938 0.100334,0.90318 0.202375,1.80583 0.302734,2.70898 0.100359,0.90306 0.150391,1.45543 0.150391,1.65625 0.100351,0.80283 0.500657,2.20779 1.203125,4.21485 0.802817,2.00703 1.707415,4.06446 2.710937,6.17187 1.003523,2.00703 2.006243,3.81428 3.009766,5.41992 1.103874,1.50529 2.006519,2.25782 2.708984,2.25782 1.003523,0 1.856126,-0.55238 2.558594,-1.65625 0.702466,-1.10388 1.254842,-2.35875 1.65625,-3.76367 0.501748,-1.50529 0.85397,-2.96029 1.054688,-4.36524 0.200693,-1.50528 0.300781,-2.55805 0.300781,-3.16016 v -0.90429 -1.95703 c 0.100359,-0.80283 0.15039,-1.55535 0.15039,-2.25782 v -1.80664 c 10e-7,-2.60916 -0.100088,-4.66466 -0.300781,-6.16992 -0.100351,-1.50528 -0.452573,-3.41259 -1.054687,-5.7207 -0.301057,-1.10388 -0.651326,-2.65896 -1.052735,-4.66602 -0.401408,-2.00703 -0.953784,-3.9644 -1.65625,-5.87109 -0.602114,-1.9067 -1.454719,-3.56187 -2.558593,-4.9668 -1.103877,-1.40495 -2.508856,-2.10742 -4.214844,-2.10742 z m 537.535158,0 c -1.70598,0 -3.21103,0.55042 -4.51563,1.6543 -1.30456,1.10387 -2.20721,2.45881 -2.70898,4.06445 v 5.11914 3.76172 c 0,1.20423 0.20015,2.50914 0.60156,3.91406 0.20059,1.10388 0.4027,1.80637 0.60352,2.10742 0.30112,0.20072 0.50128,0.80313 0.60156,1.80664 0,0.20072 0.0501,0.7531 0.15039,1.65625 0.10054,0.90319 0.2005,1.85586 0.30078,2.85938 0.10028,0.90318 0.2005,1.80583 0.30078,2.70898 0.10029,0.90306 0.15039,1.45543 0.15039,1.65625 0.10036,0.80283 0.50262,2.20779 1.20508,4.21485 0.80282,2.00703 1.70547,4.06446 2.70899,6.17187 1.00351,2.00703 2.00817,3.81428 3.01171,5.41992 1.10388,1.50529 2.00653,2.25782 2.70899,2.25782 1.00351,0 1.85613,-0.55238 2.55859,-1.65625 0.70247,-1.10388 1.25484,-2.35875 1.65625,-3.76367 0.5019,-1.50529 0.85217,-2.96029 1.05274,-4.36524 0.20082,-1.50528 0.30078,-2.55805 0.30078,-3.16016 v -0.90429 -1.95703 c 0.10028,-0.80283 0.15039,-1.55535 0.15039,-2.25782 v -1.80664 c 0,-2.60916 -0.1,-4.66466 -0.30078,-6.16992 -0.10036,-1.50528 -0.45063,-3.41259 -1.05274,-5.7207 -0.30105,-1.10388 -0.65327,-2.65896 -1.05468,-4.66602 -0.40142,-2.00703 -0.95184,-3.9644 -1.6543,-5.87109 -0.60213,-1.9067 -1.45667,-3.56187 -2.56055,-4.9668 -1.10387,-1.40495 -2.50886,-2.10742 -4.21484,-2.10742 z m 178.52734,55.39453 c -0.50177,0 -0.95406,0.0501 -1.35547,0.15039 -0.30105,0 -0.70135,0.1 -1.20312,0.30078 -0.40141,0.20072 -0.95379,0.70109 -1.65625,1.50391 -0.60211,0.70246 -1.25457,1.507 -1.95703,2.41016 -0.60213,0.90318 -1.15451,1.80582 -1.65625,2.70898 -0.40141,0.90318 -0.60157,1.55562 -0.60157,1.95703 v 11.28906 c 0,0.90316 -0.20015,1.70574 -0.60156,2.40821 -0.30113,0.60213 -0.50323,1.30462 -0.60351,2.10742 -0.30113,1.1039 -0.50128,2.30871 -0.60157,3.61328 0,1.20423 -0.25018,2.35706 -0.75195,3.46094 0,0.50174 -0.0501,1.35631 -0.15039,2.56054 0,1.10388 -0.0501,2.30674 -0.15039,3.61133 -0.10054,1.20424 -0.20245,2.40908 -0.30273,3.61328 v 2.40821 3.46289 c -0.10024,1.30456 -0.25036,2.60947 -0.45118,3.91406 -0.20056,1.30457 -0.30078,2.60947 -0.30078,3.91406 0,1.00352 0.35027,2.05628 1.05274,3.16016 0.70246,1.10387 1.50697,2.15664 2.41015,3.16015 1.00352,0.90319 2.05628,1.7077 3.16016,2.41016 1.10387,0.60211 2.10661,0.90235 3.00976,0.90234 h 0.30274 3.16015 c 1.40508,-0.10028 2.20764,-0.15039 2.40821,-0.15039 0.90323,-0.20059 1.40557,-0.40074 1.50586,-0.60156 0.10036,-0.30105 0.40057,-0.75334 0.90234,-1.35547 1.60562,-1.80633 2.71037,-3.41148 3.3125,-4.8164 0.60211,-1.50529 0.90235,-3.51269 0.90235,-6.02149 0,-1.30459 -0.45036,-2.3073 -1.35352,-3.00976 -0.90318,-0.80283 -1.35547,-1.75746 -1.35547,-2.86133 V 442.5293 c -0.10048,-0.20072 -0.2506,-0.45286 -0.45117,-0.75391 -0.20077,-0.20059 -0.35089,-0.40074 -0.45117,-0.60156 -0.10054,-0.30095 -0.20245,-0.55114 -0.30274,-0.75195 -0.80282,-1.30447 -1.65544,-2.057 -2.55859,-2.25782 -0.80282,-0.20082 -1.90562,-0.30078 -3.31055,-0.30078 z m -702.214842,22.1269 c -0.200715,0.10054 -0.400869,0.2005 -0.601562,0.30079 -0.100364,0.10053 -0.250479,0.20049 -0.451172,0.30078 l -0.601563,0.30078 -2.710937,5.87109 v 7.67774 c 0.702478,1.60564 1.154776,3.26079 1.355468,4.96679 0.301068,1.70598 0.551261,3.46124 0.751954,5.26758 0.50175,0.70246 0.853969,1.3549 1.054687,1.95703 0.30105,0.50175 0.501204,1.05412 0.601563,1.65625 0.100333,0.60211 0.200422,1.20454 0.300781,1.80664 0.200705,0.60213 0.452849,1.35466 0.753906,2.25782 0.401409,0.90318 0.901792,1.90589 1.503906,3.00976 0.702466,1.00352 1.454996,1.95815 2.257813,2.86133 0.903171,0.90316 1.857805,1.65568 2.861328,2.25781 1.003523,0.50175 2.106319,0.75196 3.310547,0.75196 1.103874,-10e-6 1.806365,-0.50235 2.107422,-1.50586 0.301057,-1.00352 0.653279,-1.85614 1.054687,-2.5586 0.401409,-0.80282 1.153936,-1.50529 2.257813,-2.10742 1.204225,-0.6021 1.80664,-1.50475 1.80664,-2.70898 v -6.32227 c 0,-0.50177 -0.202107,-0.95406 -0.603515,-1.35547 -0.401409,-0.50177 -0.901792,-0.95213 -1.503906,-1.35351 -0.501763,-0.50177 -1.0041,-0.95406 -1.50586,-1.35547 -0.501755,-0.40141 -0.803938,-0.80367 -0.904297,-1.20508 -0.100351,-0.30105 -0.350544,-1.00355 -0.751953,-2.10742 -0.301052,-1.20411 -0.501203,-1.90661 -0.601562,-2.10742 -0.401409,-1.00355 -1.003824,-2.40851 -1.806641,-4.21485 -0.80282,-1.90669 -1.705462,-3.76202 -2.708984,-5.56836 -1.003523,-1.80634 -2.108275,-3.36145 -3.3125,-4.66601 -1.204228,-1.40495 -2.409056,-2.10743 -3.613282,-2.10743 z m 537.537112,0 c -0.20059,0.10054 -0.40075,0.2005 -0.60156,0.30079 -0.10024,0.10053 -0.25231,0.20049 -0.45313,0.30078 l -0.60156,0.30078 -2.70899,5.87109 v 7.67774 c 0.70234,1.60564 1.1527,3.26079 1.35352,4.96679 0.30095,1.70598 0.55309,3.46124 0.7539,5.26758 0.5019,0.70246 0.85217,1.3549 1.05274,1.95703 0.30113,0.50175 0.50323,1.05412 0.60352,1.65625 0.10053,0.60211 0.20049,1.20454 0.30078,1.80664 0.20069,0.60213 0.4509,1.35466 0.75195,2.25782 0.40141,0.90318 0.90373,1.90589 1.50586,3.00976 0.70246,1.00352 1.45499,1.95815 2.25781,2.86133 0.90316,0.90316 1.85586,1.65568 2.85938,2.25781 1.00354,0.50175 2.10829,0.75196 3.3125,0.75196 1.1039,-10e-6 1.80637,-0.50235 2.10742,-1.50586 0.30105,-1.00352 0.65132,-1.85614 1.05273,-2.5586 0.40141,-0.80282 1.15394,-1.50529 2.25781,-2.10742 1.20424,-0.6021 1.80665,-1.50475 1.80665,-2.70898 v -6.32227 c 0,-0.50177 -0.20016,-0.95406 -0.60157,-1.35547 -0.40141,-0.50177 -0.90373,-0.95213 -1.50586,-1.35351 -0.50174,-0.50177 -1.00409,-0.95406 -1.50586,-1.35547 -0.50182,-0.40141 -0.80206,-0.80367 -0.90234,-1.20508 -0.10036,-0.30105 -0.35054,-1.00355 -0.75195,-2.10742 -0.30113,-1.20411 -0.50323,-1.90661 -0.60352,-2.10742 -0.40141,-1.00355 -1.00186,-2.40851 -1.80469,-4.21485 -0.80282,-1.90669 -1.70742,-3.76202 -2.71093,-5.56836 -1.00352,-1.80634 -2.10632,-3.36145 -3.31055,-4.66601 -1.20423,-1.40495 -2.40907,-2.10743 -3.61328,-2.10743 z"
       transform="scale(0.26458333)" />
  </g>
</svg>
