<?xml version="1.0" encoding="utf-8"?>
<!-- Svg Vector Icons : http://www.onlinewebfonts.com/icon -->
<!DOCTYPE svg PUBLIC "-//W3C//DTD SVG 1.1//EN" "http://www.w3.org/Graphics/SVG/1.1/DTD/svg11.dtd">
<svg version="1.1" xmlns="http://www.w3.org/2000/svg" xmlns:xlink="http://www.w3.org/1999/xlink" x="0px" y="0px" viewBox="0 0 1000 1000" enable-background="new 0 0 1000 1000" xml:space="preserve">
<metadata> Svg Vector Icons : http://www.onlinewebfonts.com/icon </metadata>
<g><g transform="translate(0.000000,160.000000) scale(0.100000,-0.100000)"><path d="M4014.8,1439.6c-1151.5-264.8-2142.9-868.2-2832.5-1718c-369.5-449.5-819-1323.9-966.8-1890.4c-153.9-554.2-153.9-1908.9,0-2463c252.5-954.5,911.4-1976.7,1662.6-2586.2c449.5-369.5,1323.9-819,1890.4-966.8c554.2-153.9,1908.9-153.9,2463.1,0c566.5,147.8,1440.9,597.3,1890.4,966.8c751.2,609.6,1410.1,1631.8,1662.6,2586.2c153.9,554.2,153.9,1908.8,0,2463C9532.1-1214.4,8873.2-192.2,8122,417.4c-437.2,363.3-1317.8,812.8-1859.6,960.6C5775.9,1507.3,4464.3,1544.2,4014.8,1439.6z M6231.5,312.7C7432.3-81.4,8306.7-961.9,8731.6-2199.6c147.8-424.9,172.3-591.1,172.3-1200.8s-24.6-775.9-172.3-1200.7c-517.3-1508.6-1785.7-2537-3343.7-2709.4l-387.9-43.1v3953.2V552.9l387.9-43.1C5597.3,485.1,5979,398.9,6231.5,312.7z"/></g></g>
</svg>